<?xml version="1.0" standalone="no"?>
<!DOCTYPE svg PUBLIC "-//W3C//DTD SVG 20010904//EN"
 "http://www.w3.org/TR/2001/REC-SVG-20010904/DTD/svg10.dtd">
<svg version="1.0" xmlns="http://www.w3.org/2000/svg"
 width="2069.000000pt" height="1655.000000pt" viewBox="0 0 2069.000000 1655.000000"
 preserveAspectRatio="xMidYMid meet">
<metadata>
Created by potrace 1.15, written by Peter Selinger 2001-2017
</metadata>
<g transform="translate(0.000000,1655.000000) scale(0.100000,-0.100000)"
fill="#000000" stroke="none">
<path d="M13690 14438 l-95 -9 -43 -49 c-24 -28 -50 -50 -58 -50 -8 0 -28 -10
-44 -22 -30 -21 -60 -25 -133 -16 -21 3 -40 1 -43 -4 -8 -12 -24 0 -34 28 -12
29 -35 31 -50 4 -13 -25 -5 -40 21 -40 28 0 23 -17 -17 -58 -20 -20 -48 -61
-61 -90 l-25 -54 6 -581 c3 -320 8 -658 11 -752 5 -192 13 -623 21 -1206 4
-361 7 -402 24 -453 39 -111 126 -217 190 -233 14 -3 34 -12 45 -19 11 -8 32
-14 47 -14 15 0 33 -7 40 -16 7 -8 21 -23 31 -32 12 -12 17 -32 17 -69 0 -29
5 -53 10 -53 6 0 10 8 11 18 1 30 35 77 55 76 22 -1 188 -32 224 -43 25 -6 25
-8 28 -125 l3 -118 -43 7 c-23 4 -49 11 -58 15 -8 4 -52 13 -98 19 -66 8 -87
15 -102 33 -14 18 -21 20 -32 11 -7 -7 -36 -13 -63 -15 l-50 -3 -3 -99 c-1
-55 1 -103 6 -108 5 -5 31 -12 58 -16 35 -5 51 -13 59 -29 7 -14 16 -19 25
-13 20 10 174 -3 274 -24 94 -20 97 -21 89 -44 -9 -26 -34 -42 -66 -42 -22 0
-28 -4 -25 -17 2 -13 16 -19 48 -23 25 -3 50 -8 55 -12 6 -4 11 -36 13 -72 1
-61 -1 -69 -30 -101 -17 -20 -28 -38 -25 -41 9 -9 27 6 27 22 0 23 24 11 28
-13 4 -29 -24 -50 -48 -35 -16 10 -22 7 -37 -14 -13 -18 -36 -30 -76 -39 -31
-7 -63 -20 -72 -28 -8 -9 -29 -19 -47 -22 -18 -4 -44 -16 -58 -27 -16 -12 -32
-17 -48 -13 -18 4 -25 1 -29 -14 -6 -24 -135 -111 -164 -111 -11 0 -29 -5 -40
-11 -25 -13 -79 3 -104 31 -24 27 -71 26 -85 -1 -7 -11 -9 -37 -5 -58 6 -35 4
-38 -27 -53 -42 -21 -118 -44 -191 -57 -31 -6 -67 -16 -79 -22 -13 -7 -52 -20
-88 -30 -36 -10 -121 -34 -190 -54 -69 -20 -156 -45 -193 -55 -38 -10 -85 -30
-106 -44 -20 -14 -42 -26 -47 -26 -6 0 -15 -5 -22 -12 -9 -9 -8 -16 3 -28 14
-15 35 -78 52 -150 3 -14 16 -39 29 -57 21 -28 24 -42 24 -127 0 -97 16 -176
35 -176 6 0 16 5 23 12 6 6 15 8 19 5 9 -10 -19 -38 -41 -41 -10 -1 -21 -9
-26 -16 -5 -7 -6 -96 -3 -196 3 -101 2 -195 -1 -209 -6 -25 -8 -25 -89 -23
l-82 3 0 -195 c0 -107 4 -316 8 -463 l8 -269 -23 7 c-13 4 -27 11 -32 16 -5 4
-8 78 -7 164 1 152 1 156 -21 164 -13 5 -97 17 -188 26 -91 9 -223 22 -295 30
-71 8 -166 17 -210 20 -44 3 -93 8 -110 11 -28 4 -211 23 -579 60 -82 8 -153
11 -158 6 -7 -7 -10 -367 -4 -547 1 -44 -1 -50 -19 -48 -11 1 -67 7 -125 13
-134 13 -156 17 -169 25 -14 8 -14 60 -1 84 15 29 -17 51 -76 51 -27 0 -91 3
-142 6 -54 3 -98 2 -105 -4 -6 -5 -31 -12 -55 -16 -34 -5 -48 -2 -70 14 -18
13 -46 21 -79 23 -68 3 -87 -15 -85 -77 2 -47 -12 -62 -23 -27 -4 13 -12 18
-22 14 -13 -5 -13 -3 -4 15 6 11 11 28 11 36 0 26 -38 56 -70 56 -25 0 -32 6
-44 35 -18 42 -31 44 -49 8 -10 -18 -28 -31 -53 -38 -26 -7 -40 -17 -42 -30
-2 -11 -6 -27 -9 -35 -3 -8 -5 -24 -4 -35 1 -16 -7 -23 -41 -32 -41 -11 -110
-5 -137 11 -18 11 -81 15 -81 5 0 -5 -5 -9 -11 -9 -6 0 -9 7 -6 15 5 12 2 12
-21 3 -40 -18 -52 -28 -52 -49 0 -16 -8 -19 -45 -19 -25 0 -45 5 -45 10 0 6
-6 10 -14 10 -8 0 -18 5 -22 12 -4 7 -3 8 4 4 8 -5 12 1 12 15 0 12 -3 19 -7
16 -3 -4 -12 -2 -19 4 -10 8 -12 3 -11 -23 2 -28 -1 -33 -20 -32 -13 0 -23 -3
-23 -8 0 -5 -12 -8 -27 -8 -26 1 -92 -11 -138 -24 -66 -19 -102 -22 -208 -21
l-118 1 -40 -47 c-21 -26 -39 -50 -39 -54 0 -4 -12 -35 -26 -69 -14 -33 -30
-70 -34 -81 -34 -86 -61 -134 -80 -140 -12 -4 -93 -4 -180 0 -137 7 -162 10
-176 26 -23 25 -40 24 -59 -4 -12 -19 -13 -30 -4 -56 7 -21 8 -36 1 -44 -5 -6
-13 -32 -17 -57 -4 -25 -18 -69 -32 -98 -14 -29 -23 -55 -22 -57 36 -33 94
-75 103 -75 20 0 113 92 99 97 -7 3 -13 10 -13 16 0 7 -9 29 -20 50 -11 20
-20 50 -20 66 0 17 -5 41 -11 55 -9 20 -9 29 1 41 11 13 38 15 166 14 110 -1
157 -5 164 -14 10 -12 5 -66 -16 -157 -6 -29 8 -39 22 -16 5 8 10 2 15 -16 6
-21 2 -42 -11 -72 -11 -24 -20 -47 -20 -53 0 -5 -34 -79 -75 -163 -74 -151
-86 -193 -63 -216 8 -8 8 -12 1 -12 -6 0 -11 -10 -11 -22 1 -77 -16 -164 -34
-177 -11 -7 -23 -23 -29 -35 -5 -11 -13 -28 -19 -36 -5 -8 -24 -44 -41 -80
-35 -71 -32 -48 -46 -431 l-8 -206 -30 -39 c-19 -25 -31 -55 -35 -84 -5 -42
-7 -45 -40 -50 -23 -3 -38 -13 -46 -28 -6 -12 -14 -25 -17 -28 -8 -8 -97 26
-97 37 0 14 -33 11 -56 -5 -15 -11 -31 -12 -68 -5 -37 7 -54 5 -77 -7 -25 -12
-37 -13 -65 -4 -23 8 -39 8 -47 2 -7 -5 -33 -12 -58 -16 -52 -8 -96 -44 -85
-71 7 -18 -9 -55 -24 -55 -5 0 -10 15 -12 32 -3 29 -7 33 -38 38 -20 4 -41 10
-48 14 -15 9 -16 158 -1 406 14 235 11 230 129 230 141 0 158 -14 124 -100
-16 -39 -16 -40 7 -60 30 -24 51 -25 72 -2 18 19 23 72 8 72 -4 0 -11 25 -14
56 -7 64 -19 83 -40 66 -15 -13 -210 -18 -242 -6 -11 4 -28 16 -37 28 l-17 21
-23 -22 c-13 -11 -42 -24 -65 -28 -24 -4 -43 -11 -43 -15 0 -13 37 -22 59 -15
10 3 24 -1 31 -10 8 -10 9 -15 1 -15 -14 0 -14 -27 0 -32 7 -2 10 -76 10 -233
-1 -251 -8 -345 -25 -351 -6 -2 -55 -5 -108 -7 -76 -3 -101 -1 -110 10 -6 8
-26 20 -44 28 l-33 14 2 208 c2 204 2 208 23 211 12 2 31 14 44 27 21 22 21
24 5 55 -9 17 -15 46 -13 63 2 27 8 33 31 35 31 4 37 21 7 23 -23 2 -25 2 -67
18 l-32 13 7 246 c9 324 8 340 -11 359 -14 14 -17 13 -30 -19 -18 -43 -30 -45
-241 -46 -122 -1 -154 2 -177 15 -43 25 -59 6 -59 -71 0 -40 -8 -79 -22 -114
l-23 -54 33 -29 c41 -37 61 -36 97 0 l28 30 -21 53 c-25 65 -36 125 -23 132 5
3 73 6 152 5 79 0 163 0 186 1 36 1 43 -3 48 -22 3 -13 4 -281 1 -596 -4 -587
-7 -625 -41 -579 -11 15 -15 16 -22 4 -19 -33 -75 -26 -70 8 1 6 -11 16 -27
24 -18 8 -25 16 -18 23 12 12 -5 98 -25 118 -13 13 -16 13 -28 -3 -9 -12 -15
-15 -20 -7 -4 6 1 20 10 30 20 22 16 59 -9 83 -10 9 -19 17 -20 17 -1 0 -2
-19 -4 -42 -4 -53 -15 -66 -35 -38 -9 14 -17 17 -22 11 -3 -6 -10 -9 -14 -7
-6 4 -10 -11 -13 -52 -2 -20 -23 -7 -26 16 -2 14 -11 22 -23 22 -12 0 -25 13
-36 35 -9 19 -19 35 -22 35 -3 0 -16 -14 -28 -31 -23 -33 -21 -45 19 -122 17
-35 -36 -63 -62 -32 -15 18 -37 19 -43 3 -7 -19 -35 11 -40 40 -2 13 -16 40
-32 59 -26 34 -29 35 -42 18 -7 -11 -13 -26 -13 -36 0 -14 -18 -29 -36 -29
-12 0 -33 52 -39 98 l-7 52 30 0 c16 0 35 7 42 15 11 13 10 22 -6 88 -1 4 -2
18 -3 32 -2 40 -36 33 -36 -7 0 -18 -4 -34 -10 -35 -11 -3 -11 291 -1 404 6
66 -5 115 -26 111 -9 -2 -14 14 -16 52 -3 50 -7 58 -43 89 -21 19 -39 43 -39
53 0 26 -33 84 -64 113 -15 14 -24 30 -21 36 4 6 -2 20 -12 32 -11 12 -23 30
-26 39 -3 9 -21 21 -39 26 -32 8 -33 10 -33 61 0 80 -18 90 -146 85 -55 -2
-105 -7 -110 -10 -5 -3 -9 -18 -9 -33 0 -16 -6 -34 -14 -40 -13 -11 -416 -18
-720 -11 -117 2 -124 -1 -142 -53 -12 -36 -27 -39 -32 -6 -2 13 -11 33 -19 46
-13 19 -15 42 -9 122 6 84 4 101 -9 115 -9 9 -22 16 -28 17 -7 0 -47 4 -89 8
-71 8 -80 11 -120 49 -24 22 -65 57 -93 78 -63 47 -76 60 -68 68 3 3 -6 10
-21 16 -15 5 -29 17 -32 25 -4 8 -21 22 -40 31 -25 12 -35 24 -40 50 -9 50 0
64 40 64 47 0 60 25 53 103 -6 69 -20 87 -74 96 -34 6 -38 10 -41 37 -5 48
-85 122 -137 126 -38 3 -40 5 -43 38 -2 19 -13 45 -24 57 -20 21 -27 22 -115
17 -116 -8 -108 -13 -175 119 -13 27 -27 39 -48 44 -41 8 -50 23 -53 82 -1 28
-5 51 -9 51 -3 0 -4 13 -2 29 5 32 -1 39 -43 46 -94 17 -104 17 -138 0 -20 -9
-46 -15 -58 -13 -21 3 -22 7 -21 100 1 56 6 104 13 111 9 12 30 197 31 273 0
43 -24 58 -106 66 -44 5 -87 9 -96 9 -11 0 -15 7 -13 20 5 26 -25 25 -59 -2
-15 -11 -33 -18 -41 -15 -33 12 -15 36 65 83 137 82 164 99 191 121 16 13 29
30 29 37 0 21 -67 -4 -85 -32 -8 -12 -34 -32 -58 -44 -23 -12 -53 -31 -67 -44
-14 -12 -47 -30 -73 -40 -26 -10 -50 -22 -53 -26 -3 -5 -19 -15 -37 -24 -40
-19 -83 -52 -77 -58 3 -3 28 1 55 8 28 7 54 11 58 8 17 -10 -6 -79 -35 -104
-20 -19 -25 -28 -16 -32 7 -2 21 2 30 11 16 13 18 13 24 -2 3 -9 3 -29 -1 -44
-7 -31 -7 -33 -4 -124 2 -48 -2 -73 -14 -92 -23 -34 -21 -45 6 -55 17 -7 22
-16 22 -47 0 -37 -2 -39 -48 -52 -62 -17 -97 -2 -110 48 -5 19 -13 39 -18 45
-5 5 -9 15 -9 23 0 18 -27 45 -39 38 -5 -3 -14 0 -20 8 -7 8 -21 12 -31 9 -14
-4 -20 0 -20 11 0 9 6 16 13 16 8 0 22 9 32 20 14 16 16 23 7 32 -9 9 -18 6
-39 -14 -31 -29 -85 -58 -106 -58 -18 0 -116 -62 -116 -73 -1 -5 9 -5 22 -2
37 12 40 11 55 -19 13 -26 13 -33 1 -55 -18 -31 -41 -37 -61 -17 -12 11 -24
13 -53 6 -49 -11 -61 -31 -56 -90 1 -9 -5 -35 -14 -59 -10 -31 -12 -48 -5 -62
13 -22 2 -71 -14 -66 -6 2 -13 12 -15 23 -6 37 -36 53 -103 56 l-63 3 3 44 c1
24 -2 47 -8 51 -6 4 -1 34 15 83 27 86 93 172 165 217 22 14 40 30 40 36 0 15
121 94 142 94 14 0 80 31 128 60 8 5 22 11 30 14 38 15 135 75 138 86 3 9 -1
11 -13 7 -9 -4 -29 -10 -43 -13 -15 -4 -34 -12 -42 -18 -23 -17 -53 -33 -192
-103 -128 -65 -187 -105 -269 -182 -23 -23 -46 -41 -50 -41 -4 0 -9 -6 -12
-12 -3 -9 -8 -10 -16 -3 -15 15 -18 279 -3 297 6 8 14 34 18 58 9 63 26 91 76
132 54 44 88 62 161 89 31 11 61 29 67 38 5 10 31 27 57 39 53 23 111 76 94
86 -6 4 -16 -3 -23 -14 -13 -22 -68 -50 -96 -50 -9 0 -30 -13 -47 -29 -16 -16
-68 -46 -115 -67 -47 -21 -92 -44 -101 -51 -27 -23 -29 -2 -4 36 14 19 25 43
25 52 0 9 9 28 20 42 11 14 20 33 20 43 0 9 14 41 30 71 17 29 30 64 30 77 0
14 5 28 10 31 6 3 10 12 10 20 0 7 20 48 45 89 25 42 45 83 45 90 0 21 27 38
49 31 14 -4 28 1 43 14 12 12 30 21 39 21 10 0 21 5 24 10 3 5 -3 10 -13 10
-11 0 -25 6 -31 14 -10 12 -16 10 -37 -11 -18 -18 -29 -22 -36 -15 -8 8 -8 15
0 25 6 7 14 44 17 82 7 76 10 86 46 160 22 45 67 103 162 206 31 34 32 37 15
48 -21 13 -24 46 -5 58 7 4 20 20 30 36 20 30 48 37 44 10 -3 -27 16 -29 29
-4 6 12 21 32 33 45 21 22 21 23 2 40 -16 15 -18 22 -9 41 6 13 7 32 4 42 -7
16 -10 15 -32 -12 -33 -40 -35 -43 -93 -99 -42 -41 -52 -47 -65 -37 -17 14
-36 7 -36 -14 0 -8 -9 -20 -21 -29 -15 -10 -19 -20 -14 -36 l7 -22 24 23 c19
18 26 20 39 9 8 -7 15 -19 15 -28 0 -26 -44 -104 -67 -120 -13 -8 -23 -19 -23
-24 0 -6 -11 -23 -25 -40 -14 -16 -25 -35 -25 -43 0 -7 -7 -18 -15 -25 -8 -7
-15 -21 -15 -32 0 -10 -9 -36 -19 -56 -11 -21 -22 -60 -26 -87 -12 -90 -16
-104 -46 -141 -16 -20 -29 -49 -29 -63 0 -29 -51 -145 -69 -155 -6 -4 -11 -16
-11 -26 0 -11 -13 -34 -29 -52 -16 -18 -32 -49 -36 -68 -4 -19 -15 -46 -24
-60 -9 -14 -22 -37 -29 -52 -30 -70 -38 8 -11 106 7 23 13 59 15 81 4 55 13
94 31 134 12 27 13 38 4 54 -12 18 -7 63 19 167 5 19 11 74 14 122 3 58 12
104 26 135 15 34 17 48 9 54 -10 6 -9 23 0 76 7 37 12 84 12 103 -1 20 8 50
21 70 12 19 23 43 25 54 2 10 12 31 23 46 11 16 20 40 20 54 0 37 23 87 53
115 l25 23 19 -38 c10 -22 24 -40 31 -42 10 -2 10 2 0 20 -12 24 -21 240 -11
290 3 14 26 48 53 75 26 26 57 67 68 90 12 23 26 44 32 48 6 3 -1 17 -17 31
-30 28 -37 30 -29 9 9 -23 -3 -43 -30 -49 -17 -5 -24 -13 -24 -32 0 -15 -7
-27 -17 -30 -39 -12 -47 -22 -49 -57 0 -20 -8 -45 -16 -54 -8 -10 -18 -27 -22
-38 -7 -19 -8 -19 -28 5 l-21 25 7 -52 c5 -39 2 -67 -14 -112 -11 -33 -20 -74
-20 -90 0 -16 -4 -32 -9 -35 -4 -3 -11 -25 -15 -48 -3 -24 -13 -56 -20 -73 -8
-16 -19 -43 -25 -59 -11 -27 -13 -28 -30 -12 -13 12 -21 37 -25 84 -3 37 -8
97 -12 135 -5 50 -3 67 6 67 7 0 3 8 -8 18 -12 9 -23 33 -26 53 -3 20 -10 49
-16 65 -6 16 -10 44 -9 64 3 36 -22 103 -42 115 -17 11 -36 -12 -21 -27 7 -7
12 -27 12 -44 0 -18 5 -36 11 -39 6 -4 7 -19 4 -36 -4 -17 -2 -35 3 -42 5 -7
13 -34 16 -61 4 -27 11 -57 16 -67 6 -10 10 -33 10 -53 0 -19 4 -37 8 -40 5
-3 10 -37 10 -76 1 -39 4 -74 6 -78 6 -10 20 -148 19 -192 0 -30 -9 -125 -28
-310 -17 -165 -22 -193 -35 -204 -9 -6 -16 -31 -17 -56 -2 -25 -5 -61 -8 -80
-2 -19 -9 -69 -14 -110 -13 -113 -41 -261 -52 -281 -5 -10 -9 -44 -9 -76 0
-33 -5 -64 -11 -70 -6 -6 -14 -41 -16 -77 -3 -36 -9 -66 -14 -66 -4 0 -21 12
-38 26 -17 14 -31 20 -31 14 0 -7 11 -20 24 -31 39 -31 49 -69 38 -143 -12
-77 -44 -128 -79 -123 -12 2 -26 7 -30 12 -4 4 -2 5 5 1 16 -9 15 5 -2 29 -23
34 -29 75 -11 81 21 8 19 41 -3 53 -24 13 -45 -19 -36 -54 15 -60 -28 -19
-144 140 -44 61 -101 130 -125 155 -51 51 -67 78 -67 114 0 14 -4 28 -10 31
-5 3 -10 15 -10 27 0 16 -5 19 -23 14 -18 -4 -30 2 -49 22 -37 39 -78 108 -85
142 -3 17 -10 30 -15 30 -5 0 -7 4 -3 9 3 5 1 12 -5 16 -11 7 -35 57 -45 95
-4 14 -16 35 -27 47 -22 23 -22 25 -2 182 7 51 6 53 -14 42 -13 -7 -23 -25
-27 -51 -4 -22 -11 -43 -17 -46 -14 -9 -58 40 -58 64 0 10 -9 27 -21 38 -30
27 -46 61 -60 132 -7 35 -22 72 -33 84 l-20 21 -7 -25 c-5 -19 2 -46 27 -100
38 -81 36 -77 82 -142 17 -26 32 -51 32 -55 0 -5 7 -14 16 -22 11 -9 14 -24
11 -51 -2 -21 0 -41 5 -44 19 -12 98 -142 113 -189 9 -28 28 -61 41 -76 13
-14 24 -30 24 -35 0 -6 11 -25 25 -44 14 -19 23 -40 21 -47 -3 -7 3 -17 13
-22 9 -6 31 -29 46 -53 16 -24 57 -72 90 -108 84 -92 155 -187 155 -210 0 -10
5 -22 10 -25 6 -3 10 -17 10 -30 0 -21 15 -34 48 -41 21 -4 43 -26 62 -63 51
-96 60 -119 60 -158 0 -41 13 -58 23 -30 2 7 10 1 17 -15 15 -32 6 -68 -12
-50 -22 22 -28 13 -28 -38 0 -37 -4 -52 -16 -57 -14 -5 -71 17 -129 50 -31 17
-194 36 -188 21 2 -7 19 -14 36 -17 111 -18 185 -41 201 -63 6 -8 23 -20 36
-27 34 -17 34 -52 0 -53 -14 -1 -29 -2 -35 -4 -5 -1 -57 -3 -115 -4 l-105 -1
-8 -50 c-4 -27 -12 -63 -17 -79 -7 -20 -5 -37 5 -57 18 -34 19 -98 3 -134 -11
-25 -28 -34 -28 -14 0 6 -6 25 -14 42 -15 33 -45 178 -43 210 0 9 4 17 9 17
16 0 8 29 -15 54 -23 24 -47 103 -47 151 0 24 17 35 55 35 13 0 27 4 30 10 6
9 -15 17 -64 22 -32 4 -59 50 -62 108 -1 25 -6 50 -10 55 -16 22 -48 122 -51
160 -2 22 -11 49 -21 60 -9 10 -22 37 -28 59 -6 22 -26 60 -45 85 -19 24 -40
64 -45 88 -6 23 -17 47 -25 53 -11 10 -12 3 -9 -38 4 -47 29 -104 63 -144 13
-15 11 -20 -14 -42 l-29 -24 30 -12 c17 -6 36 -13 43 -15 13 -5 29 -40 35 -77
1 -13 8 -33 15 -45 7 -13 15 -42 18 -65 4 -24 15 -61 25 -83 26 -59 29 -109 5
-113 -27 -6 -136 40 -147 61 -5 9 -18 17 -28 17 -21 0 -61 74 -61 116 -1 25
-39 84 -55 84 -18 0 25 -137 57 -179 10 -13 15 -27 12 -32 -9 -16 -63 -10 -73
8 -11 20 -71 26 -71 7 0 -15 100 -64 132 -64 28 0 68 -38 68 -64 0 -10 9 -29
19 -42 11 -14 30 -55 42 -92 12 -37 30 -83 39 -102 10 -19 21 -65 25 -102 3
-37 11 -70 16 -73 5 -4 9 -19 9 -34 0 -15 3 -31 7 -35 10 -10 43 -98 43 -115
0 -14 6 -29 89 -201 28 -58 51 -111 51 -117 0 -6 -10 -13 -23 -17 -17 -5 -30
3 -59 36 -21 24 -38 49 -38 57 0 25 -108 130 -181 176 -9 6 -34 22 -55 36 -63
42 -163 91 -176 87 -7 -3 22 -23 64 -46 41 -23 81 -49 88 -57 7 -8 17 -15 22
-15 13 0 102 -67 140 -104 37 -37 71 -103 58 -111 -5 -3 -20 1 -32 9 -13 8
-59 24 -103 36 -44 12 -95 30 -114 41 -18 11 -53 22 -77 26 -24 3 -44 9 -44
14 0 4 -16 13 -36 19 -58 19 -149 75 -148 91 8 76 35 129 65 129 11 0 19 4 19
8 0 18 -87 73 -149 92 -52 17 -164 66 -223 97 -4 2 -8 -1648 -8 -3666 l0
-3671 10345 0 10345 0 0 5062 c0 4581 -1 5063 -16 5079 -10 11 -17 44 -20 98
-4 73 -3 81 16 93 20 13 20 20 20 545 0 293 -2 533 -4 533 -2 0 -66 -16 -142
-35 -76 -19 -143 -34 -149 -32 -5 2 -8 20 -7 40 5 48 -13 55 -81 30 l-52 -18
0 -45 c0 -42 -2 -45 -36 -55 -21 -5 -46 -18 -57 -28 -27 -24 -92 -43 -236 -68
-65 -11 -131 -25 -145 -30 -45 -18 -191 -49 -226 -49 -18 0 -46 -5 -61 -10
l-27 -11 5 -102 c4 -77 2 -105 -8 -114 -17 -16 -296 -84 -354 -86 -44 -2 -45
-1 -70 47 -22 43 -31 51 -72 63 -26 7 -50 18 -53 23 -7 12 -48 13 -59 3 -4 -5
-30 -15 -59 -23 -50 -15 -66 -31 -81 -82 -5 -16 -19 -18 -101 -18 -106 0 -223
-24 -232 -47 -3 -9 4 -36 16 -61 29 -59 24 -63 -107 -92 l-103 -22 -80 26
c-69 23 -86 25 -115 16 -18 -6 -41 -10 -51 -8 -10 1 -29 -5 -43 -15 -13 -9
-36 -17 -51 -17 -14 0 -48 -7 -75 -15 -27 -9 -71 -20 -98 -25 -28 -6 -59 -19
-70 -29 -12 -10 -61 -31 -111 -46 -51 -16 -97 -36 -106 -47 -19 -25 -84 -43
-299 -88 -58 -12 -125 -28 -150 -35 -25 -8 -75 -20 -111 -26 -59 -11 -75 -10
-145 9 -120 31 -189 36 -259 17 -33 -9 -103 -20 -155 -24 -52 -5 -147 -23
-210 -39 -64 -17 -140 -34 -170 -37 -30 -4 -66 -11 -80 -16 -14 -5 -48 -14
-75 -18 -61 -11 -133 -30 -160 -41 -57 -24 -81 -15 -99 34 -6 18 -7 18 -26 1
-15 -13 -28 -15 -62 -10 -24 4 -54 12 -68 18 -14 6 -36 12 -50 13 -14 1 -52 7
-85 14 -33 6 -87 15 -120 20 -33 5 -81 14 -107 18 -37 7 -48 6 -48 -4 0 -22
-35 -34 -95 -34 -69 0 -71 20 -4 33 54 11 70 24 38 31 -13 3 -42 9 -64 13 -30
7 -41 14 -43 31 -4 25 -27 30 -36 7 -3 -8 -14 -15 -25 -15 -32 0 -184 30 -202
40 -9 5 -26 6 -37 4 -14 -4 -31 5 -56 31 -34 34 -40 36 -76 30 -30 -5 -51 -2
-83 14 -23 11 -62 23 -87 26 -84 12 -233 50 -237 62 -2 6 10 18 28 27 29 15
33 15 43 0 20 -27 34 4 27 61 l-6 50 -48 3 c-39 3 -48 6 -45 20 4 19 17 19 98
4 98 -18 364 -73 400 -82 19 -5 49 -11 65 -14 151 -25 323 -62 335 -72 17 -13
109 -33 190 -41 59 -6 79 -21 80 -63 0 -33 11 -70 19 -70 4 0 14 21 22 48 14
44 17 47 51 50 20 2 62 -4 95 -14 32 -9 75 -18 97 -20 48 -4 72 -25 80 -70 8
-39 26 -46 26 -10 0 32 16 43 70 48 25 3 78 14 118 26 73 20 74 20 93 1 31
-31 38 -23 41 44 l3 62 60 -3 c104 -5 177 37 221 125 28 56 29 63 29 208 0
178 -15 691 -20 708 -2 7 -9 181 -15 387 -5 206 -12 411 -15 455 -4 76 -8 161
-20 545 -18 566 -18 567 -70 675 -34 70 -55 100 -94 133 -28 23 -52 42 -53 42
-2 0 -30 8 -62 20 -62 21 -89 37 -81 50 3 4 -14 5 -38 3 -31 -3 -74 6 -167 37
-69 23 -129 46 -135 51 -14 14 7 29 54 37 52 9 59 26 11 30 -22 2 -38 -2 -45
-12 -7 -8 -31 -20 -56 -27 -41 -11 -53 -8 -186 35 -78 26 -147 54 -153 62 -7
8 -27 14 -44 14 -17 0 -80 15 -141 34 -158 50 -174 56 -185 76 -8 14 -18 18
-43 14 -36 -6 -301 77 -327 102 -20 19 -1 36 43 39 46 3 61 13 47 30 -16 20
-70 8 -97 -22 -35 -37 -53 -35 -243 24 -80 25 -152 53 -160 62 -13 15 -26 16
-110 9z m53 -92 c26 -8 47 -12 47 -9 0 2 6 1 13 -4 6 -4 14 -8 17 -9 37 -11
50 -18 50 -25 0 -5 13 -9 29 -9 27 0 56 -10 141 -48 19 -8 46 -16 60 -17 14
-2 63 -16 110 -33 47 -17 103 -33 125 -37 21 -3 46 -12 55 -19 8 -8 29 -16 45
-17 17 -2 35 -6 40 -10 6 -4 45 -16 87 -27 42 -12 91 -28 110 -38 18 -10 41
-18 51 -19 30 -3 43 -23 29 -45 -6 -11 -12 -25 -12 -32 0 -6 -9 -30 -19 -52
-20 -44 -74 -162 -96 -211 -7 -16 -22 -50 -34 -75 -11 -25 -34 -76 -52 -115
-17 -38 -42 -93 -55 -121 -13 -28 -24 -56 -24 -62 0 -7 -4 -12 -10 -12 -5 0
-10 -7 -10 -16 0 -9 -22 -62 -49 -118 -27 -55 -76 -159 -110 -231 -34 -71 -80
-167 -102 -211 -21 -45 -39 -88 -39 -96 0 -9 -7 -21 -15 -28 -8 -7 -15 -17
-15 -23 0 -9 -33 -82 -81 -179 -20 -41 -27 -55 -44 -93 -21 -50 -44 -99 -88
-195 -19 -41 -38 -86 -42 -100 -4 -14 -14 -33 -22 -42 -8 -9 -13 -26 -11 -38
3 -24 38 -37 213 -78 50 -12 146 -35 215 -52 69 -17 154 -38 190 -45 36 -8
101 -24 145 -35 82 -22 188 -49 215 -55 8 -2 35 -8 60 -14 25 -6 83 -20 130
-32 227 -53 339 -81 493 -123 93 -25 175 -46 183 -46 8 0 14 -4 14 -10 0 -5 3
-9 8 -8 4 1 26 -1 50 -5 49 -8 82 5 82 32 0 10 -7 24 -15 31 -8 7 -15 17 -15
22 0 6 -7 26 -16 46 -9 21 -19 46 -24 57 -4 11 -15 38 -25 60 -9 22 -19 51
-22 64 -2 14 -10 36 -18 50 -7 14 -23 51 -35 81 -11 30 -25 64 -30 75 -4 11
-18 47 -30 80 -12 33 -28 74 -35 90 -7 17 -20 52 -30 78 -10 26 -22 50 -26 53
-5 3 -9 13 -9 22 0 9 -6 29 -14 44 -8 14 -19 43 -26 65 -7 21 -16 43 -20 48
-3 6 -13 30 -20 55 -8 25 -20 51 -27 58 -7 7 -13 23 -13 35 0 12 -9 40 -19 62
-32 66 -58 128 -65 160 -4 16 -18 52 -31 80 -40 87 -65 147 -65 157 0 6 -7 26
-16 46 -9 21 -19 46 -23 57 -4 11 -17 40 -29 65 -12 25 -22 52 -22 61 0 8 -7
24 -15 35 -8 10 -15 27 -15 36 0 9 -6 29 -14 45 -24 47 -44 96 -52 128 -3 17
-17 53 -29 80 -12 28 -31 75 -41 105 -10 30 -24 62 -31 71 -7 8 -13 27 -13 40
0 14 -7 35 -16 47 -9 13 -18 41 -20 62 -2 21 -5 44 -6 51 -4 17 38 24 66 11
44 -20 117 -44 122 -39 3 3 27 -4 52 -15 26 -10 56 -23 67 -28 22 -9 46 -17
58 -19 4 0 23 -8 43 -16 20 -8 45 -15 56 -15 10 0 30 -7 43 -16 14 -9 25 -12
25 -8 0 5 4 3 9 -5 5 -8 17 -15 28 -16 42 -5 72 -18 94 -43 21 -25 23 -25 30
-6 4 10 8 13 8 6 1 -6 4 -11 9 -10 5 1 76 -10 102 -17 25 -7 60 -31 57 -39
-12 -32 50 -69 78 -46 9 7 16 6 25 -5 7 -8 17 -12 23 -8 5 3 7 2 4 -4 -4 -6 5
-21 18 -33 15 -15 23 -30 20 -41 -3 -10 5 -29 20 -47 21 -25 26 -43 29 -104 3
-40 7 -81 11 -91 4 -9 2 -23 -4 -31 -6 -7 -7 -16 -3 -20 4 -4 8 -63 8 -132 1
-85 5 -129 14 -139 10 -12 10 -19 2 -27 -15 -15 -16 -68 -1 -68 8 0 7 -5 -2
-16 -10 -12 -10 -22 0 -50 10 -27 10 -38 1 -49 -9 -11 -9 -15 -1 -15 14 0 15
-67 0 -76 -8 -4 -8 -9 0 -17 16 -16 13 -47 -5 -54 -16 -6 -16 -7 -1 -18 13 -9
17 -31 18 -96 1 -46 6 -92 11 -101 4 -9 4 -19 0 -22 -7 -4 -9 -131 -2 -131 1
0 3 -27 5 -60 2 -33 7 -94 10 -135 2 -41 7 -156 10 -254 3 -98 7 -181 10 -184
3 -3 0 -12 -7 -19 -7 -9 -8 -17 -2 -21 5 -4 9 -57 9 -119 0 -61 3 -110 6 -108
3 2 5 -40 4 -93 0 -53 2 -127 5 -164 3 -37 2 -76 -2 -87 -4 -11 -3 -23 3 -26
5 -4 9 -23 8 -43 -1 -20 2 -50 5 -65 5 -21 3 -27 -5 -21 -9 5 -10 -1 -5 -22 4
-16 7 -38 7 -49 -1 -11 -1 -30 -1 -42 0 -12 -7 -39 -14 -61 -8 -22 -13 -42
-11 -44 2 -1 -13 -23 -34 -46 -25 -30 -44 -44 -61 -44 -40 1 -182 27 -365 66
-93 20 -190 41 -215 46 -25 5 -162 34 -305 65 -143 31 -332 71 -420 90 -178
37 -258 54 -390 84 -238 52 -334 73 -379 81 -124 25 -222 129 -261 277 -12 46
-17 141 -20 448 -2 215 -7 500 -10 635 -10 479 -14 812 -16 1350 -2 597 -3
585 58 641 45 43 73 47 146 25z m6640 -4089 c3 -7 4 -35 3 -61 -1 -26 1 -49 5
-52 4 -2 6 -16 3 -29 -3 -15 0 -25 7 -25 7 0 5 -7 -5 -19 -22 -24 -74 -35 -94
-19 -11 10 -16 9 -26 -3 -6 -9 -19 -15 -29 -13 -11 1 -16 0 -13 -4 7 -7 -125
-41 -161 -42 -33 0 -34 4 -47 135 -3 38 10 65 32 65 15 0 15 2 2 11 -11 7 -5
8 21 3 22 -3 39 -2 43 5 4 6 23 11 42 11 20 0 42 7 50 15 9 8 33 15 54 15 21
0 42 5 45 10 9 15 62 12 68 -3z m-542 -135 c0 -4 2 -42 3 -85 2 -70 0 -80 -18
-90 -12 -6 -25 -12 -31 -13 -5 0 -12 -2 -15 -3 -17 -8 -158 -29 -235 -36 l-41
-3 1 83 c1 90 22 142 52 131 8 -3 54 3 101 14 48 10 101 21 117 23 30 3 64 -8
66 -21z m-4885 -43 c17 -11 38 -19 47 -19 22 0 20 -57 -2 -63 -9 -2 -44 -2
-78 1 -44 3 -67 10 -79 23 -16 18 -16 22 -1 54 15 32 19 34 49 28 18 -3 47
-14 64 -24z m-616 -55 c13 -12 12 -18 -3 -43 -12 -21 -14 -30 -5 -33 7 -3 8
-10 3 -17 -6 -10 -26 -12 -79 -8 -51 3 -79 1 -100 -10 -27 -14 -30 -13 -62 18
l-35 33 23 18 c15 11 27 13 33 7 5 -5 17 -9 27 -9 10 0 27 -5 38 -12 10 -7 22
-9 26 -5 10 9 -16 37 -44 48 -18 7 -21 13 -14 22 15 17 172 10 192 -9z m4896
-1 c11 -27 13 -103 2 -109 -6 -4 -5 -10 3 -15 12 -8 11 -11 -1 -19 -8 -5 -15
-15 -16 -22 -2 -30 -5 -34 -21 -35 -17 -1 -89 -18 -127 -29 -11 -4 -16 -2 -12
4 3 6 -13 1 -35 -10 -54 -26 -59 -18 -59 90 0 68 3 82 16 82 9 0 30 10 47 22
18 13 44 21 64 21 18 -1 31 2 28 6 -2 4 2 8 10 8 8 0 12 -4 9 -9 -3 -4 2 -5
10 -2 9 3 16 10 16 14 0 5 10 11 23 13 12 2 25 5 28 6 4 0 10 -7 15 -16z
m1168 -55 c-3 -5 -11 -5 -17 -1 -7 4 -6 0 2 -10 11 -14 11 -23 1 -47 -10 -25
-10 -32 4 -45 18 -19 21 -45 5 -45 -5 0 -8 4 -5 8 2 4 -4 8 -13 8 -14 0 -18
-8 -18 -31 1 -29 0 -30 -41 -28 -29 1 -42 -2 -42 -11 0 -14 -56 -30 -71 -20
-6 3 -15 1 -22 -5 -20 -16 -104 -24 -112 -11 -4 6 -7 40 -8 76 0 35 -4 64 -7
64 -3 0 -6 8 -7 19 -2 24 29 39 92 45 28 3 76 9 108 13 38 6 57 6 57 -1 0 -6
7 0 16 12 12 17 24 22 49 20 19 -1 31 -6 29 -10z m-4364 -118 c7 -10 10 -11
10 -2 0 6 5 12 12 12 26 0 -18 -29 -54 -35 -28 -5 -38 -4 -38 6 0 9 -4 8 -12
-3 -11 -14 -97 -38 -192 -55 -16 -2 -41 -10 -55 -16 -28 -11 -61 -17 -61 -10
0 14 33 63 43 64 16 0 78 8 97 12 8 1 20 6 27 10 6 4 24 7 40 6 34 -1 74 8 85
19 14 14 88 8 98 -8z m3827 -41 c3 -44 0 -59 -13 -70 -15 -12 -19 -11 -31 8
-13 20 -17 21 -30 8 -8 -8 -23 -15 -34 -15 -10 0 -19 -4 -19 -10 0 -5 -9 -10
-20 -10 -24 0 -39 -28 -21 -40 8 -4 1 -10 -21 -15 -48 -12 -51 -12 -54 8 -1 9
2 17 6 17 5 0 11 -8 14 -17 4 -14 4 -14 3 2 -2 19 -7 21 -53 24 -17 1 -23 9
-27 37 -8 47 6 73 44 81 16 3 29 8 29 12 0 3 12 7 28 8 15 2 50 5 77 8 28 2
58 5 67 5 10 1 20 6 24 11 14 23 27 0 31 -52z m-5265 26 c14 -16 24 -21 28
-14 4 6 27 12 51 15 24 2 53 6 65 9 13 3 28 -3 38 -14 15 -16 15 -19 -2 -34
-9 -9 -37 -19 -61 -23 -40 -6 -44 -5 -37 11 5 15 4 16 -8 6 -9 -8 -54 -13
-123 -13 -160 -1 -175 0 -167 15 4 6 -1 5 -12 -4 -18 -15 -51 -20 -237 -34
-26 -2 -59 -10 -72 -19 -32 -21 -94 -21 -102 -1 -8 22 6 33 17 15 9 -13 10
-13 11 0 1 8 1 19 0 23 -1 5 4 5 10 2 6 -4 28 1 50 10 32 15 41 16 54 5 13
-11 20 -9 43 13 24 23 88 41 142 39 58 -1 98 -6 94 -13 -2 -4 1 -11 7 -15 7
-4 9 -3 5 4 -13 21 46 39 132 41 44 1 56 -3 74 -24z m3914 7 c18 -12 25 -92 8
-99 -11 -4 -11 -9 1 -33 8 -16 15 -37 15 -47 -1 -46 -60 -75 -88 -43 -8 8 -11
10 -8 3 4 -6 3 -14 -2 -17 -18 -11 -2 95 19 125 25 36 21 43 -33 48 -5 1 -8
10 -8 21 0 18 10 25 33 21 4 0 7 6 7 14 0 16 36 21 56 7z m-143 -67 c-3 -8 -2
-23 2 -32 22 -51 15 -157 -12 -167 -19 -8 -44 11 -37 28 3 7 -6 18 -19 25 -19
10 -22 19 -19 46 2 19 8 32 13 30 10 -7 33 34 24 43 -3 3 -15 1 -25 -6 -18
-11 -20 -9 -20 20 0 27 6 36 33 49 30 14 33 14 49 -3 9 -11 14 -26 11 -33z
m874 -30 c9 -10 14 -27 11 -46 -3 -16 -1 -32 4 -35 11 -7 10 -94 -2 -94 -5 0
-7 8 -4 18 4 13 2 13 -8 -3 -7 -11 -20 -21 -28 -22 -8 -2 -49 -12 -90 -23 -96
-26 -112 -24 -121 18 -4 18 -2 35 3 38 6 4 6 10 -1 17 -14 14 -14 104 -1 112
6 3 10 1 10 -6 0 -10 3 -10 12 -1 7 7 37 12 68 12 31 0 61 5 68 12 7 7 12 8
12 2 0 -15 28 -13 34 3 7 17 14 16 33 -2z m-3313 -44 c3 -5 39 -7 78 -5 l73 5
28 -42 c28 -40 29 -41 48 -23 16 14 22 15 28 5 7 -10 14 -10 40 3 17 9 31 20
31 25 0 16 30 7 36 -11 5 -18 7 -18 23 -4 17 15 100 37 151 40 23 1 25 -2 26
-51 1 -32 -4 -57 -11 -63 -7 -6 -40 -15 -74 -21 -55 -10 -64 -9 -81 6 -11 10
-20 29 -20 42 0 32 -24 25 -28 -8 -5 -34 -29 -57 -66 -64 -17 -4 -50 -18 -73
-31 -23 -13 -50 -24 -60 -24 -31 0 -59 26 -73 70 -15 47 -55 84 -79 74 -9 -3
-69 -8 -134 -9 -93 -2 -121 0 -132 12 -9 8 -12 20 -8 26 4 6 0 8 -10 4 -30
-11 -18 2 16 17 40 18 112 30 127 21 15 -9 -19 -47 -34 -38 -8 4 -8 3 0 -6 6
-6 24 -13 40 -14 24 -2 29 2 34 27 4 21 12 30 29 33 14 2 27 6 30 8 8 8 40 5
45 -4z m-1212 -116 c-9 -19 -19 -21 -167 -23 -135 -2 -286 -13 -335 -24 -8 -2
-15 5 -18 14 -6 28 42 51 111 52 38 1 65 6 70 14 4 6 13 12 18 12 6 0 8 -3 6
-7 -3 -5 44 -7 104 -7 60 1 109 -2 109 -5 0 -4 16 -5 35 -3 23 3 39 12 47 25
11 21 11 21 20 -3 5 -15 5 -33 0 -45z m633 2 c19 -15 12 -42 -8 -30 -8 4 -8 2
1 -9 10 -13 10 -17 -3 -22 -9 -3 -13 -2 -10 3 3 5 0 13 -6 17 -8 4 -9 3 -5 -4
4 -7 3 -12 -3 -12 -6 0 -8 -6 -6 -12 5 -14 -38 -38 -68 -38 -25 0 -59 -19 -52
-29 2 -5 -11 -16 -30 -25 -41 -20 -52 -35 -34 -47 11 -7 11 -9 -2 -9 -17 0
-39 -39 -39 -69 0 -20 -33 -54 -43 -44 -4 3 -7 -1 -7 -10 0 -26 -21 -31 -36
-8 -8 12 -21 21 -29 21 -19 0 -40 39 -36 67 4 32 -7 47 -25 32 -9 -8 -12 -24
-9 -50 5 -44 -13 -69 -50 -69 -32 0 -77 -25 -91 -52 -11 -21 -13 -21 -19 -5
-4 9 -15 17 -24 17 -23 0 -61 53 -61 83 0 46 -23 51 -207 47 -44 -1 -86 0 -91
4 -5 3 -22 -4 -37 -16 -15 -11 -30 -17 -33 -12 -4 5 -23 9 -42 9 -33 0 -35 -2
-35 -32 0 -18 -5 -37 -12 -44 -15 -15 -44 -4 -37 15 3 8 0 17 -7 22 -9 5 -11
2 -6 -8 9 -25 -14 -46 -62 -57 -38 -8 -49 -7 -72 10 -34 24 -31 24 -114 -10
-48 -19 -71 -34 -73 -47 -2 -10 -9 -23 -14 -29 -8 -7 -8 -5 -3 5 8 13 7 13 -8
1 -12 -10 -21 -11 -30 -3 -18 15 -54 4 -60 -19 -3 -12 -12 -17 -25 -14 -25 4
-50 -30 -47 -65 1 -14 -5 -35 -13 -47 -8 -13 -11 -23 -8 -23 4 0 2 -9 -4 -20
-15 -28 -27 -25 -45 10 -17 32 -51 41 -61 15 -4 -8 -11 -15 -17 -15 -6 0 -20
-11 -32 -25 -11 -14 -33 -28 -50 -31 -16 -3 -33 -11 -37 -17 -32 -56 -35 -56
-91 6 -28 31 -56 57 -61 57 -5 0 -17 7 -27 16 -18 16 -64 11 -54 -7 4 -5 -6
-9 -20 -9 -15 0 -24 4 -20 10 3 6 1 10 -4 10 -6 0 -11 -7 -11 -15 0 -8 -8 -15
-17 -15 -10 0 -31 -9 -48 -20 -38 -25 -42 -25 -50 1 -5 16 0 28 21 46 16 13
23 21 16 18 -10 -5 -11 0 -6 22 10 40 9 40 62 52 85 21 203 20 253 -2 41 -18
75 -22 139 -15 20 2 26 10 30 38 4 31 8 35 39 37 19 2 44 12 56 23 12 11 28
20 37 20 9 0 40 16 69 35 29 19 65 37 81 40 15 4 28 10 28 14 0 18 162 73 201
69 13 -2 24 2 24 9 0 21 14 26 30 9 22 -22 48 -20 63 5 8 12 21 19 35 17 16
-2 22 2 23 17 0 11 4 28 8 37 7 16 11 16 45 -4 26 -15 43 -19 57 -13 31 14
107 20 189 15 37 -2 88 4 103 14 6 3 13 -2 16 -12 4 -10 13 -19 21 -19 8 0 12
4 10 8 -8 12 80 20 106 10 13 -5 33 -21 43 -35 21 -29 36 -34 36 -11 0 12 4
13 19 6 10 -6 21 -8 24 -5 3 3 19 6 37 6 19 1 34 7 38 17 3 9 11 20 19 24 7 4
13 15 13 22 0 8 8 15 18 15 9 0 31 9 47 20 28 19 109 59 165 82 14 6 35 15 47
21 11 5 26 7 31 3 5 -3 15 1 22 9 15 19 40 19 65 2z m-1380 -87 c8 -12 -30
-50 -51 -50 -8 0 -25 -5 -37 -12 -12 -7 -30 -13 -39 -15 -22 -4 -181 -87 -236
-124 -41 -28 -82 -38 -82 -21 0 16 152 113 179 114 18 1 31 8 37 22 5 12 12
19 15 16 4 -3 15 2 25 10 11 8 37 24 59 34 22 10 47 22 55 27 21 11 68 11 75
-1z m2070 -101 c4 -5 9 -42 11 -81 2 -39 7 -75 10 -80 8 -12 -25 -37 -48 -38
-31 0 -19 -20 12 -20 28 0 30 -2 30 -39 0 -44 16 -56 43 -33 22 20 26 15 27
-33 1 -71 -7 -94 -25 -65 -4 6 -11 7 -18 3 -6 -3 -39 -6 -74 -5 -58 2 -64 0
-72 -22 -10 -26 -37 -41 -46 -25 -13 19 -9 177 4 193 7 9 17 14 21 11 4 -3 14
3 21 13 12 15 12 16 -1 5 -12 -9 -21 -9 -40 0 -23 12 -25 19 -28 99 -3 78 -2
88 17 97 47 26 145 38 156 20z m-280 -59 c4 -6 8 -47 10 -92 3 -86 -6 -107
-47 -108 -10 0 -18 -5 -18 -10 0 -6 15 -9 33 -8 l32 3 0 -100 0 -100 -60 -11
c-33 -7 -87 -17 -119 -24 -82 -16 -89 -6 -84 117 2 64 -1 96 -9 104 -8 8 -13
43 -13 96 0 98 -2 96 129 123 102 21 138 24 146 10z m-365 -181 c0 -59 -3 -70
-21 -80 -39 -20 -123 11 -105 40 3 5 -1 11 -9 15 -21 8 -19 43 5 68 10 12 17
25 14 29 -2 4 5 13 16 19 16 9 25 8 35 0 8 -7 20 -10 27 -7 7 3 4 6 -7 6 -17
1 -18 3 -5 11 29 19 50 -24 50 -101z m946 -59 c3 -30 7 -63 10 -74 4 -12 2
-16 -5 -12 -6 4 -11 3 -11 -3 0 -5 6 -11 13 -14 8 -3 6 -7 -6 -12 -11 -5 -24
-2 -35 8 -15 13 -50 22 -74 18 -15 -2 -18 -1 -19 7 0 4 -6 14 -14 22 -12 14
-14 92 -2 80 3 -3 13 2 23 12 19 16 60 27 98 24 15 -1 19 -11 22 -56z m-1631
-72 c0 -58 3 -109 7 -113 4 -4 5 -20 2 -35 -8 -37 12 -47 36 -18 l19 23 1 -63
c0 -55 2 -63 17 -60 22 4 36 82 27 150 -6 50 7 88 31 88 19 0 19 -34 0 -50 -8
-7 -15 -20 -15 -30 0 -26 27 -45 43 -31 8 6 17 8 20 4 4 -3 13 9 21 27 12 29
12 37 0 55 -13 19 -12 24 6 45 11 13 20 19 20 14 0 -5 4 -3 8 3 4 7 7 -9 6
-37 -3 -61 14 -192 27 -205 22 -22 30 22 24 133 -4 69 -3 112 3 112 11 0 22
-24 22 -46 0 -9 -5 -12 -11 -9 -5 4 -3 -10 5 -30 9 -21 16 -38 16 -39 0 -1 14
-3 32 -4 18 -2 34 -5 37 -8 7 -7 2 -205 -6 -217 -3 -6 -1 -7 4 -4 11 7 11 -33
0 -63 -8 -22 -5 -50 5 -50 5 0 8 -28 6 -62 -3 -67 -20 -85 -51 -53 -20 19 -27
19 -27 -1 0 -12 -7 -15 -25 -12 -38 8 -48 -13 -45 -95 1 -39 2 -98 3 -129 1
-32 6 -58 10 -58 5 0 5 -5 2 -10 -11 -17 -12 -214 -2 -227 6 -9 6 -18 -2 -26
-16 -20 -4 -26 36 -20 30 5 34 3 31 -13 -4 -22 -34 -48 -47 -40 -5 3 -14 -1
-21 -9 -10 -12 -10 -15 0 -15 9 0 10 -3 1 -13 -6 -8 -8 -16 -6 -19 7 -6 17
-49 16 -63 -2 -25 -1 -98 3 -195 2 -58 2 -97 -1 -87 -2 9 -8 15 -13 12 -5 -3
-1 -23 7 -44 16 -41 11 -89 -7 -61 -5 8 -6 18 -4 22 3 4 0 8 -5 8 -6 0 -11 -6
-11 -13 0 -16 -40 -51 -48 -41 -4 4 -1 9 6 11 6 3 12 14 12 24 0 11 -4 17 -10
14 -5 -3 -10 -1 -10 5 0 6 -4 8 -10 5 -5 -3 -10 1 -10 10 0 9 5 13 10 10 15
-9 12 6 -4 24 -17 19 -10 74 8 65 6 -3 2 2 -9 11 -11 9 -19 21 -17 26 1 5 -3
8 -9 7 -14 -4 -20 41 -8 62 5 8 9 11 9 6 0 -5 7 -3 15 4 9 7 13 21 10 31 -5
13 -1 19 10 19 12 0 15 5 11 16 -3 9 -6 22 -6 30 0 12 -4 12 -20 2 -15 -10
-22 -10 -32 0 -9 9 -9 12 1 12 9 0 11 8 7 25 -4 16 -2 25 5 25 9 0 9 4 0 14
-9 10 -8 15 4 20 8 3 15 10 15 16 0 6 -4 8 -10 5 -5 -3 -10 -4 -10 -1 0 2 -3
12 -7 22 -4 12 -3 15 5 10 8 -5 12 0 12 13 0 10 -5 21 -12 23 -13 5 -18 184
-6 230 4 15 2 30 -3 33 -5 4 -5 14 2 26 7 15 7 24 -1 34 -17 21 -19 136 -3
142 7 3 13 9 13 15 0 5 -4 6 -10 3 -10 -6 -14 6 -11 37 1 10 -3 27 -9 39 -9
17 -9 27 1 45 10 19 10 32 -1 66 -7 24 -12 52 -11 63 4 26 22 44 28 28 7 -18
31 -16 52 5 58 57 7 142 -66 108 -36 -17 -235 -5 -259 15 -13 10 -15 25 -11
67 3 29 11 60 18 68 10 12 8 18 -9 30 -19 13 -22 25 -22 93 0 51 4 82 13 88
19 16 69 30 102 29 l30 -1 0 -107z m5171 69 c2 -20 -1 -39 -7 -42 -5 -4 -9
-17 -9 -31 0 -14 -7 -27 -15 -30 -8 -4 -13 -10 -10 -14 2 -4 -24 -7 -58 -6
-60 2 -63 1 -65 -23 -1 -14 -7 -30 -13 -36 -7 -7 -8 -4 -3 9 5 12 4 17 -3 13
-6 -4 -9 3 -7 18 1 14 -3 28 -9 32 -7 3 -9 3 -6 -1 9 -10 -51 -68 -65 -63 -12
4 -18 73 -9 97 4 8 7 22 7 30 2 25 16 40 39 40 12 0 30 7 40 14 12 9 39 12 81
10 48 -2 67 1 77 12 19 23 33 11 35 -29z m-5403 -102 c6 -55 5 -86 -3 -98 -8
-13 -8 -22 -1 -31 12 -15 18 -157 7 -174 -10 -16 -41 -15 -54 1 -6 7 -10 51
-8 105 2 50 -1 92 -6 92 -10 0 -11 174 -1 184 4 4 19 6 33 4 24 -3 25 -7 33
-83z m905 46 c19 -12 13 -172 -7 -179 -9 -3 -11 0 -6 8 6 10 0 12 -24 8 -17
-2 -31 -1 -31 3 0 5 -7 6 -15 3 -20 -8 -8 26 14 43 16 11 9 28 -11 28 -6 0
-13 7 -15 15 -4 13 -3 13 7 0 9 -12 10 -8 6 20 -5 30 -2 37 16 46 29 14 49 16
66 5z m3919 -120 c1 -61 -1 -112 -5 -115 -13 -8 -166 -29 -217 -30 l-50 -1 -7
54 c-3 30 -2 65 3 77 5 14 4 26 -1 29 -18 11 -10 45 13 54 47 19 62 24 70 22
4 0 16 3 27 9 11 6 21 6 25 1 7 -12 74 -2 100 15 31 22 39 2 42 -115z m-5128
74 c17 -5 21 -4 16 4 -8 13 31 11 53 -3 8 -5 18 -4 25 3 29 29 63 -13 69 -83
3 -44 -2 -48 -82 -66 -30 -7 -59 -16 -65 -20 -5 -4 -26 -6 -45 -6 l-35 1 -3
84 c-3 83 5 107 33 97 6 -2 21 -7 34 -11z m-1346 -56 c23 -30 27 -31 57 -20
25 8 36 8 47 -1 11 -9 12 -14 1 -24 -18 -18 -88 -26 -88 -11 0 7 -4 6 -10 -3
-8 -12 -10 -12 -11 5 0 11 -3 14 -6 7 -2 -6 -9 -10 -14 -6 -5 3 -9 2 -9 -3 0
-4 -16 -9 -36 -11 -19 -1 -44 -7 -54 -12 -11 -6 -42 -10 -69 -9 -65 3 -58 16
40 75 90 53 119 55 152 13z m1052 4 c6 -17 24 -258 25 -330 0 -44 -30 -73 -75
-73 -46 0 -50 11 -39 120 7 70 7 90 -4 97 -10 6 -11 26 -5 88 8 78 9 80 43 97
44 22 46 22 55 1z m2476 -93 c0 -19 2 -120 4 -225 3 -203 6 -244 17 -260 4 -6
4 -33 2 -60 -3 -28 -6 -57 -7 -66 -1 -10 -10 -15 -27 -14 -30 2 -108 37 -93
42 13 5 6 102 -9 120 -12 14 -4 104 13 152 10 29 10 35 -5 43 -14 8 -15 12 -5
25 10 11 10 19 2 32 -9 14 -8 25 3 46 8 16 11 33 6 43 -12 24 6 104 21 96 8
-5 8 -3 0 6 -18 19 17 55 51 55 23 0 26 -4 27 -35z m-2022 -55 c0 -16 3 -51 7
-78 7 -54 -6 -78 -40 -75 -11 1 -37 -3 -56 -9 -62 -19 -98 -23 -108 -10 -5 7
-7 45 -4 84 4 69 6 73 35 88 34 17 83 20 92 5 3 -5 12 -10 18 -10 8 0 7 3 -2
9 -11 7 -10 11 5 19 33 19 52 11 53 -23z m5388 -25 c6 -24 21 -26 29 -5 4 8
12 15 20 15 7 0 11 -6 8 -14 -3 -8 0 -17 7 -22 8 -5 10 -3 5 7 -4 8 1 5 11 -6
10 -11 25 -20 33 -20 8 0 16 -10 18 -22 2 -13 0 -23 -5 -23 -5 0 -9 -10 -10
-21 -3 -41 -20 -43 -58 -6 -23 23 -42 34 -53 30 -11 -5 -13 -3 -7 8 6 11 5 12
-6 2 -17 -16 -39 -16 -61 1 -17 12 -17 14 1 35 21 24 35 15 25 -16 -5 -15 -4
-15 5 -3 14 19 14 50 1 50 -5 0 -10 7 -10 15 0 23 41 19 47 -5z m-6598 -27
c15 -29 22 -301 8 -306 -7 -2 -12 -18 -12 -36 0 -29 -4 -34 -40 -47 -22 -7
-62 -15 -90 -16 l-50 -3 -3 44 c-3 33 2 49 18 66 26 28 23 63 -7 88 -21 17
-23 27 -23 102 l0 84 43 11 c23 6 56 14 72 19 48 14 74 12 84 -6z m178 -10
c19 -24 5 -35 -23 -17 -36 24 -32 -4 6 -41 17 -16 30 -37 30 -47 0 -10 4 -18
9 -18 21 0 41 -33 41 -66 0 -41 17 -77 31 -69 5 4 7 10 4 15 -3 5 -1 11 3 14
15 9 34 -44 22 -59 -15 -18 -176 -30 -195 -15 -11 9 -15 34 -15 91 0 43 -4 81
-10 84 -5 3 -10 28 -10 55 0 35 4 50 16 54 9 3 14 12 11 20 -3 8 -3 17 1 21
11 11 66 -4 79 -22z m5960 -1 c-3 -4 9 -7 26 -7 31 0 31 0 32 -57 1 -75 -18
-104 -59 -89 -15 6 -33 11 -39 10 -7 0 0 -5 15 -10 38 -14 25 -36 -25 -45 -23
-3 -48 -15 -55 -25 -29 -41 -105 -10 -81 33 10 18 2 48 -12 48 -11 0 -9 72 4
88 5 6 16 12 23 12 8 0 23 8 34 17 13 11 33 16 56 14 24 -2 34 1 30 8 -5 7 4
11 24 11 17 0 29 -3 27 -8z m-6409 -44 c16 -16 16 -175 0 -180 -9 -3 -9 -11
-1 -34 38 -97 21 -174 -37 -174 -40 0 -49 25 -40 115 5 55 3 72 -8 81 -12 8
-14 28 -10 87 5 81 16 103 51 110 12 2 24 5 28 6 3 0 10 -4 17 -11z m4191 -47
c11 -11 23 -16 26 -13 4 4 4 -4 0 -18 -4 -14 -11 -27 -15 -30 -18 -13 -18 -39
1 -45 14 -5 18 -12 13 -30 -3 -13 0 -26 6 -30 9 -6 9 -9 0 -15 -9 -6 -9 -12 2
-29 11 -18 11 -25 -3 -49 -9 -15 -21 -26 -27 -24 -7 1 -12 -3 -12 -9 0 -6 -12
-9 -27 -7 -28 3 -28 4 -28 71 1 37 -2 67 -6 67 -10 0 2 44 14 52 7 4 7 11 -1
20 -19 24 -1 108 24 108 8 0 23 -9 33 -19z m-161 -13 c7 -7 12 -8 12 -4 0 5 8
2 17 -5 15 -12 16 -12 8 1 -6 11 -5 12 4 4 12 -11 18 -61 25 -202 5 -89 7 -86
-52 -96 -37 -6 -53 14 -35 43 6 9 7 26 3 37 -12 31 -14 85 -5 117 5 18 3 33
-4 40 -6 6 -11 23 -11 37 0 39 15 51 38 28z m-1076 -247 c5 -69 4 -108 -3
-117 -7 -9 -7 -19 0 -33 16 -29 14 -216 -1 -229 -7 -6 -29 -13 -48 -16 -19 -3
-48 -9 -65 -12 -76 -14 -126 -16 -140 -4 -11 9 -14 37 -13 125 0 62 -3 118 -7
125 -5 8 -10 60 -12 116 l-3 102 36 12 c55 18 175 39 214 37 l35 -2 7 -104z
m-382 -56 c3 -55 6 -163 5 -240 l0 -140 -37 -9 c-60 -15 -67 -2 -61 112 3 53
10 103 15 110 7 8 6 17 -2 27 -9 10 -11 38 -7 92 9 121 23 156 61 151 19 -3
21 -11 26 -103z m-305 -15 c2 -36 6 -76 9 -90 3 -14 8 -37 11 -52 4 -14 1 -29
-5 -33 -8 -5 -8 -11 1 -21 10 -12 8 -16 -9 -21 -12 -3 -22 -10 -22 -17 -1 -6
-7 0 -15 14 -8 15 -12 38 -9 56 4 24 0 37 -18 57 -13 14 -24 37 -26 51 -1 23
2 26 22 22 19 -3 23 0 22 17 -1 12 5 29 13 37 13 13 12 15 -3 18 -14 3 -15 7
-5 18 21 25 30 11 34 -56z m1911 -35 c4 -9 19 -15 35 -15 26 0 29 -4 29 -30 0
-33 -23 -41 -38 -14 -13 24 -34 7 -30 -24 3 -25 -1 -28 -45 -36 -59 -12 -65
-5 -63 67 1 45 4 52 26 58 44 12 80 10 86 -6z m3490 -136 c11 -19 16 -193 6
-220 -9 -23 -18 -27 -74 -33 -35 -4 -108 -14 -163 -22 -79 -11 -102 -12 -112
-2 -7 8 -14 53 -17 115 -4 88 -2 104 13 117 12 11 66 23 157 35 173 23 181 24
190 10z m-4158 -77 c-28 -17 -40 -49 -14 -39 9 4 18 -8 26 -34 13 -40 10 -56
-9 -44 -6 3 -8 17 -5 30 3 12 2 25 -3 28 -4 3 -8 -9 -8 -26 1 -18 -4 -35 -10
-39 -5 -4 2 -8 16 -8 32 0 40 -26 29 -97 -5 -27 -4 -49 1 -51 13 -5 11 -52 -2
-52 -5 0 -8 -4 -5 -8 3 -5 -1 -9 -9 -9 -11 0 -12 3 -3 14 7 9 8 17 1 24 -12
12 -45 1 -37 -12 9 -15 -25 -22 -41 -9 -13 11 -12 15 9 31 13 11 32 19 43 19
14 0 15 2 5 9 -8 4 -13 12 -13 17 0 5 -6 9 -13 9 -20 0 -24 6 -30 38 -2 14 -8
31 -11 37 -4 6 -2 17 4 24 7 8 9 29 6 50 -6 36 2 44 39 37 5 -1 4 5 -4 13 -7
9 -19 16 -26 16 -16 0 -19 37 -4 42 6 2 30 4 53 5 l42 2 -27 -17z m3618 -118
c4 -60 3 -106 -1 -102 -4 4 -24 -1 -44 -12 -43 -22 -300 -54 -315 -39 -9 8
-11 227 -3 235 4 4 19 9 34 10 87 9 289 37 292 40 2 1 9 -3 17 -10 8 -9 16
-53 20 -122z m-607 -63 c12 -105 12 -115 -3 -127 -16 -11 -158 -32 -251 -37
l-40 -2 -8 112 c-7 90 -6 116 5 126 12 13 58 21 188 34 24 2 47 6 49 9 3 3 14
4 26 2 18 -3 21 -15 34 -117z m-4259 -6 c0 -7 -6 -15 -12 -18 -10 -3 -10 -8 2
-21 15 -19 18 -30 27 -85 3 -20 1 -36 -6 -40 -8 -5 -5 -16 10 -35 19 -24 19
-29 7 -49 -17 -25 -13 -51 5 -40 7 4 5 -4 -4 -17 -15 -23 -15 -25 2 -40 16
-13 17 -23 10 -72 -4 -32 -5 -58 -2 -58 3 0 7 -17 8 -38 1 -20 5 -50 9 -66 5
-20 4 -27 -4 -22 -8 5 -10 2 -6 -8 3 -9 9 -16 13 -16 4 0 8 -16 8 -35 0 -19
-4 -32 -9 -29 -4 3 -5 -1 -3 -8 3 -8 -1 -22 -8 -32 -20 -27 -46 -14 -45 22 1
16 -2 34 -6 40 -3 6 3 20 16 31 12 12 18 24 15 28 -4 3 -7 1 -7 -6 0 -9 -5 -9
-21 -1 -16 9 -18 14 -8 26 6 8 8 14 4 14 -4 0 -2 7 5 15 13 16 6 50 -9 40 -14
-8 -25 15 -13 27 16 16 3 41 -14 27 -11 -9 -14 -6 -14 16 0 20 4 26 15 21 16
-6 38 31 28 46 -9 16 -12 48 -3 43 4 -3 6 4 3 15 -6 24 -10 25 -30 4 -14 -14
-17 -14 -32 1 -13 13 -14 17 -2 24 7 5 22 6 33 3 18 -4 19 -3 8 18 -11 20 -10
22 5 17 11 -5 15 -3 13 5 -3 7 -14 14 -26 16 -19 3 -20 9 -18 70 2 36 0 78 -4
92 -5 18 0 35 18 62 23 36 42 42 42 13z m5428 -61 c10 -44 19 -190 12 -197 -4
-5 -17 -4 -29 2 -12 7 -49 14 -84 17 -68 7 -150 -15 -206 -55 -30 -21 -30 -21
-40 -2 -6 11 -11 60 -11 109 0 72 3 92 18 104 17 16 70 24 221 33 47 3 87 8
90 10 9 10 24 -1 29 -21z m-1943 -24 c-5 -38 -3 -40 14 -30 25 13 41 13 21 0
-8 -5 -10 -10 -4 -10 17 0 27 -149 11 -168 -10 -13 -9 -14 2 -7 10 5 12 4 7
-4 -7 -11 -45 -9 -67 5 -7 4 -21 7 -33 8 -16 1 -21 8 -21 31 -1 17 -4 37 -8
45 -7 16 -5 46 5 56 4 3 4 21 1 40 -4 23 -2 34 7 34 7 0 10 -7 7 -15 -4 -8 -1
-17 5 -21 7 -4 8 -3 4 4 -5 8 0 12 12 12 15 0 19 5 15 20 -3 11 -9 20 -14 20
-5 0 -9 5 -9 10 0 6 11 10 25 10 24 0 25 -3 20 -40z m-697 18 c5 -7 13 -53 17
-103 6 -87 6 -91 -18 -113 -13 -13 -53 -32 -87 -42 l-63 -19 -18 22 -18 22 -1
-26 c0 -26 -44 -68 -57 -55 -3 3 -17 -4 -32 -15 l-26 -21 -12 29 c-14 33 -17
119 -4 127 4 3 6 17 3 31 -2 15 0 25 7 25 7 0 11 8 9 18 -2 9 3 16 10 15 6 -2
12 2 12 7 0 6 8 10 19 10 10 0 30 9 45 21 14 11 30 17 36 14 6 -4 9 -3 8 2 -1
4 1 18 6 30 5 17 17 23 49 26 86 8 105 7 115 -5z m2094 -62 c15 -27 16 -202 1
-199 -6 2 -26 4 -42 5 -17 1 -31 5 -31 8 0 11 -45 10 -88 -1 -29 -8 -41 -16
-38 -25 5 -14 -4 -18 -38 -14 -10 1 -31 -4 -48 -11 -53 -22 -56 2 -7 73 37 54
43 70 42 111 -1 43 2 49 24 58 16 6 31 5 45 -2 14 -8 27 -8 42 -1 49 25 124
24 138 -2z m-2878 -41 c3 -8 8 -84 12 -169 7 -154 7 -154 -16 -166 -15 -8 -43
-10 -80 -7 -34 4 -61 2 -67 -4 -6 -6 -23 -9 -39 -7 l-29 3 0 164 c0 144 2 165
17 175 13 8 25 6 48 -7 23 -14 30 -15 30 -5 0 25 24 38 71 38 32 0 49 -5 53
-15z m2260 -14 c3 -5 9 -44 12 -87 3 -44 11 -82 17 -86 7 -4 6 -15 -4 -35 -14
-28 -15 -28 -115 -30 -56 -2 -114 -7 -129 -13 -16 -6 -32 -7 -37 -2 -4 4 -10
54 -12 110 -4 96 1 119 27 121 4 0 17 3 30 6 27 7 141 22 179 24 15 0 29 -3
32 -8z m-18576 -30 c29 -10 57 -22 62 -27 5 -5 16 -45 25 -89 9 -43 23 -97 30
-120 8 -22 15 -75 16 -118 2 -49 8 -82 16 -89 7 -6 13 -18 13 -27 0 -9 9 -34
20 -56 11 -22 20 -52 20 -67 0 -15 7 -48 16 -73 16 -50 9 -125 -13 -132 -14
-5 -55 56 -47 69 3 4 1 8 -4 8 -15 0 -82 147 -82 179 0 10 -6 34 -14 52 -8 19
-12 46 -9 62 3 16 1 27 -5 27 -10 0 -17 24 -25 80 -2 8 -7 22 -12 30 -5 8 -22
51 -38 95 -15 44 -37 106 -49 139 -17 48 -18 60 -7 67 19 12 26 11 87 -10z
m15030 -93 c20 -20 15 -116 -9 -154 -11 -19 -26 -34 -32 -34 -7 0 -24 -14 -38
-32 -23 -28 -29 -30 -43 -19 -9 7 -16 24 -16 38 0 27 -39 85 -52 77 -4 -3 -8
0 -8 6 0 7 -7 10 -14 7 -10 -4 -13 -1 -10 7 3 7 -2 19 -11 26 -22 18 -19 29
13 41 21 9 172 44 203 48 3 1 10 -4 17 -11z m-12793 -266 c3 -7 0 -23 -6 -34
-9 -18 -17 -19 -57 -14 -26 3 -116 6 -200 7 -164 1 -207 7 -207 30 0 22 45 26
262 25 158 -1 204 -4 208 -14z m14033 -43 c3 -49 0 -58 -20 -71 -39 -26 -87
-32 -94 -13 -4 8 -20 23 -36 31 -25 13 -29 20 -26 52 3 34 6 37 48 48 25 7 63
12 85 11 l40 -2 3 -56z m-14370 -67 c2 -21 -3 -41 -12 -51 -11 -13 -13 -20 -5
-28 15 -15 3 -33 -21 -33 -26 0 -33 15 -15 30 21 17 19 30 -4 30 -11 0 -22 4
-25 9 -6 9 -19 9 -46 -2 -33 -13 -65 -3 -68 21 -7 45 20 59 111 58 l82 -1 3
-33z m7717 -122 c-9 -14 8 -13 23 2 8 8 21 5 52 -16 22 -14 40 -22 40 -16 0 5
-4 10 -10 10 -5 0 -10 5 -10 12 0 7 7 5 18 -5 11 -10 22 -13 33 -7 10 6 30 2
59 -12 31 -16 47 -19 59 -11 11 7 27 7 51 -1 19 -7 59 -11 87 -10 34 1 57 -3
64 -12 9 -11 8 -14 -2 -16 -31 -3 -34 -4 -44 -10 -5 -3 -25 -5 -42 -3 -20 1
-33 -2 -33 -9 0 -6 -5 -4 -10 4 -8 13 -10 12 -10 -4 0 -15 -5 -17 -27 -13 -15
3 -40 -1 -55 -9 -20 -10 -48 -12 -103 -8 -58 4 -75 2 -75 -8 0 -10 -2 -10 -9
1 -5 8 -8 23 -6 33 2 10 -2 18 -8 18 -7 1 -5 6 4 13 14 10 14 14 2 25 -11 11
-16 8 -27 -19 -9 -21 -16 -27 -21 -19 -4 6 -3 16 3 22 8 8 4 16 -11 28 -18 15
-19 20 -8 34 15 18 26 22 16 6z m-1895 -26 c0 -16 -36 -24 -49 -11 -8 8 -11 3
-11 -16 0 -27 24 -39 32 -16 3 9 10 9 26 0 19 -10 23 -9 29 4 5 14 8 14 15 3
6 -9 7 -6 3 10 -7 25 -3 27 68 37 37 5 47 3 47 -8 0 -20 -29 -30 -46 -16 -12
9 -13 9 -9 -3 4 -9 0 -18 -9 -21 -10 -4 -13 -13 -9 -23 6 -16 -9 -17 -127 -2
-14 2 -30 0 -37 -5 -14 -10 -75 1 -68 13 3 4 -3 14 -12 21 -9 8 -14 9 -10 2
17 -27 -4 -40 -61 -39 -56 1 -57 1 -74 -36 -10 -21 -21 -38 -24 -38 -11 0 6
84 20 100 7 8 16 23 20 34 6 17 8 17 31 2 21 -14 25 -14 25 -2 0 18 22 22 137
21 63 0 93 -4 93 -11z m808 -53 c3 -8 0 -11 -6 -8 -5 4 -12 -2 -15 -12 -3 -14
0 -17 13 -14 20 5 58 43 59 58 1 17 34 11 36 -6 2 -10 -4 -16 -14 -15 -9 0
-15 -6 -15 -16 1 -11 -5 -15 -17 -13 -28 6 -23 -10 7 -23 14 -7 22 -17 19 -22
-3 -6 -1 -10 6 -10 7 0 5 -8 -6 -20 -19 -20 -19 -20 -31 10 -12 27 -16 29 -37
19 -13 -6 -28 -24 -34 -40 -11 -27 -10 -29 15 -35 49 -11 51 -12 46 -41 -4
-22 -3 -26 7 -15 7 6 18 12 23 12 24 0 -15 -23 -44 -26 -27 -3 -32 -1 -28 14
5 18 -13 42 -30 42 -5 0 -15 -7 -22 -15 -7 -8 -16 -13 -20 -10 -4 3 -11 -6
-14 -20 -7 -27 -26 -34 -26 -10 0 8 4 15 8 15 20 0 6 26 -15 28 -12 1 -23 -3
-23 -10 0 -6 -2 -9 -5 -6 -12 12 8 38 25 33 10 -3 25 2 34 11 12 12 20 13 30
5 9 -8 13 -7 13 4 0 8 -4 12 -9 9 -4 -3 -8 1 -8 10 0 8 -6 17 -12 19 -7 3 -2
6 11 6 13 1 22 4 18 7 -3 4 1 20 9 36 16 30 12 45 -18 66 -10 7 -18 19 -18 27
0 17 81 -24 88 -44z m422 53 c0 -4 -11 -17 -25 -30 -14 -13 -25 -20 -25 -17 0
3 -7 0 -16 -7 -12 -11 -15 -11 -12 1 2 9 -7 15 -27 16 -16 1 -24 0 -17 -3 6
-3 10 -9 7 -13 -2 -5 6 -14 19 -20 19 -11 29 -10 56 4 17 9 33 15 34 13 2 -2
6 -18 10 -37 5 -29 4 -32 -9 -21 -16 14 -20 3 -6 -19 6 -9 11 -10 15 -2 4 6
26 8 53 6 49 -5 67 -14 44 -23 -7 -2 -22 -13 -33 -24 -15 -15 -28 -18 -51 -14
-18 4 -39 8 -47 9 -9 2 -22 7 -30 12 -21 13 -39 15 -46 4 -3 -5 6 -13 19 -18
36 -14 42 -30 18 -52 -21 -20 -47 -26 -36 -9 10 16 -2 11 -28 -12 -27 -24 -75
-34 -56 -12 15 18 2 34 -27 34 -23 0 -24 -1 -10 -16 9 -8 16 -18 16 -21 0 -4
-3 -3 -6 0 -4 3 -16 2 -27 -4 -15 -9 -18 -8 -12 2 5 8 4 10 -3 5 -7 -4 -12
-14 -12 -22 0 -16 -36 -19 -46 -3 -3 6 1 18 10 27 11 11 16 12 16 4 0 -7 5
-10 10 -7 6 4 7 11 4 17 -4 7 -2 8 4 4 13 -8 15 4 6 28 -7 19 -34 21 -34 3 0
-8 -7 -14 -15 -14 -11 0 -13 6 -9 20 3 11 2 17 -2 14 -5 -3 -7 22 -6 55 3 48
7 58 19 54 8 -3 19 -6 25 -6 5 0 7 -12 3 -30 -4 -18 -3 -30 4 -30 5 0 13 -9
16 -20 5 -17 10 -18 27 -9 13 7 18 7 14 1 -3 -6 -1 -14 6 -18 7 -4 10 -4 6 1
-4 4 -3 14 2 20 7 9 5 17 -7 26 -11 9 -14 10 -9 2 4 -7 2 -13 -3 -13 -16 0
-13 36 4 50 8 6 19 9 24 6 9 -6 8 23 -2 42 -9 16 31 37 76 40 27 2 60 10 75
18 29 15 52 18 52 8z m-1018 -47 c20 -1 34 -5 31 -9 -2 -5 2 -8 9 -8 16 0 44
-53 52 -95 2 -16 8 -42 11 -57 9 -35 -32 -66 -64 -48 -12 6 -21 7 -21 2 0 -5
-26 -9 -59 -8 l-59 1 0 44 c-1 23 -4 52 -7 62 -7 21 18 64 38 64 6 0 13 5 14
10 0 6 -3 9 -7 8 -13 -4 -32 25 -25 37 3 5 16 8 29 4 12 -3 38 -6 58 -7z
m-5716 -31 c19 -15 19 -15 -4 -38 -22 -22 -39 -26 -157 -30 -16 -1 -55 0 -86
2 -54 3 -55 4 -51 32 6 37 11 39 57 27 26 -7 40 -7 44 0 4 5 33 12 66 14 33 2
72 4 86 5 14 1 34 -4 45 -12z m8190 -11 c9 -14 20 -22 26 -19 15 9 38 -16 38
-42 0 -13 -9 -33 -20 -44 -12 -12 -19 -28 -18 -37 2 -11 -11 -20 -47 -30 -100
-29 -102 -29 -109 9 -16 80 -17 97 -6 118 11 20 12 21 24 4 9 -12 19 -15 32
-9 10 5 30 9 44 9 15 1 25 7 25 16 0 11 -9 14 -34 12 -34 -3 -34 -2 -16 18 24
27 41 25 61 -5z m729 3 c30 0 55 -4 55 -8 0 -4 9 -10 20 -13 11 -3 20 -13 19
-24 0 -10 -3 -13 -6 -5 -2 7 -22 12 -44 12 -36 0 -40 -3 -55 -39 -9 -22 -27
-47 -42 -57 -25 -16 -26 -16 -45 7 -11 13 -24 24 -31 24 -6 0 -12 20 -14 45
-3 53 17 74 60 64 16 -3 53 -6 83 -6z m-11601 -20 c22 -6 48 -17 56 -24 8 -7
28 -16 45 -20 16 -4 51 -20 76 -34 25 -15 79 -36 120 -46 41 -10 81 -24 89
-30 8 -7 39 -20 68 -29 64 -21 102 -50 102 -77 0 -16 5 -19 24 -14 19 5 28 -1
48 -32 32 -50 60 -126 56 -154 -3 -20 -9 -23 -46 -24 -27 0 -52 6 -65 16 -12
9 -41 20 -64 24 -24 3 -58 15 -75 26 -18 11 -46 20 -61 20 -40 0 -59 13 -92
59 -19 28 -75 73 -179 142 -191 128 -221 160 -184 197 15 15 30 15 82 0z
m10575 -54 c16 10 32 -21 25 -49 -8 -31 -45 -49 -89 -42 -20 3 -44 -4 -73 -21
-50 -29 -65 -22 -60 29 3 28 8 34 37 42 19 5 50 22 70 38 33 27 37 28 58 13
13 -8 27 -12 32 -10z m-315 -140 c-7 -22 -16 -27 -49 -30 -22 -2 -52 -9 -68
-15 -24 -10 -34 -9 -57 4 -28 17 -29 17 -59 -13 -16 -17 -45 -33 -63 -36 -18
-3 -43 -7 -56 -10 -20 -4 -23 -1 -20 22 3 25 11 30 103 59 55 18 129 38 165
44 36 7 69 17 75 22 6 6 15 3 24 -6 11 -11 13 -21 5 -41z m-7572 -27 c16 -26
8 -57 -17 -67 -29 -11 -174 -2 -192 12 -12 10 -8 33 9 55 13 17 190 16 200 0z
m5548 -149 c14 1 43 4 66 7 33 4 46 1 68 -19 24 -20 32 -22 57 -13 32 12 49 3
31 -15 -15 -15 -239 -21 -248 -7 -3 5 -23 6 -45 3 -45 -7 -46 -5 -20 25 12 14
25 20 32 15 8 -5 9 -3 4 6 -6 10 -4 11 11 5 10 -4 30 -7 44 -7z m2108 -51 c3
-23 8 -27 36 -27 18 0 41 -7 52 -15 27 -20 33 -19 44 10 13 34 27 31 35 -6 10
-46 -20 -83 -71 -86 -24 -2 -45 4 -56 14 -10 9 -18 11 -18 6 0 -17 -60 -34
-94 -27 -28 5 -35 1 -65 -40 -19 -25 -38 -46 -43 -46 -20 0 -19 51 2 80 24 34
20 44 -21 54 -18 4 -31 1 -39 -9 -7 -8 -25 -15 -41 -15 -15 0 -30 -4 -33 -9
-3 -4 -25 -11 -48 -15 -23 -4 -48 -12 -55 -18 -20 -16 -45 -1 -41 24 2 17 12
24 38 28 20 4 42 10 49 14 7 5 34 10 59 12 26 2 56 6 67 9 11 2 38 9 60 14 61
15 108 37 130 61 25 27 49 22 53 -13z m-8758 -9 c-3 -3 5 -17 17 -30 28 -30
36 -94 11 -92 -10 1 -18 -2 -18 -7 0 -12 42 -39 52 -33 4 3 8 1 8 -5 0 -5 -4
-13 -10 -16 -5 -3 -10 -1 -10 4 0 6 -9 2 -20 -9 -17 -17 -28 -19 -58 -14 -20
4 -43 10 -51 14 -8 4 -27 4 -43 0 -15 -5 -28 -6 -28 -3 0 3 -6 0 -13 -6 -10
-8 -18 -7 -30 2 -19 14 -43 81 -42 117 0 23 4 25 45 28 49 3 92 20 84 34 -12
19 11 29 59 26 29 -2 50 -6 47 -10z m6715 -123 c-1 -33 -4 -40 -20 -40 -15 0
-20 7 -20 25 0 22 -4 24 -48 25 -50 0 -71 -10 -43 -21 33 -13 19 -21 -41 -25
-43 -3 -164 4 -156 10 4 3 8 17 8 30 0 16 6 25 18 27 11 1 20 4 22 6 2 2 66 3
142 3 l138 0 0 -40z m1269 -170 c23 -15 23 -17 21 -198 -2 -192 0 -214 19
-198 10 9 213 46 576 106 174 29 408 71 470 85 42 9 119 21 215 35 22 3 59 10
83 17 47 12 62 6 46 -20 -12 -19 -151 -57 -244 -66 -35 -4 -66 -9 -71 -11 -4
-3 -52 -12 -106 -20 -83 -12 -200 -32 -278 -48 -11 -3 -42 -8 -70 -11 -27 -4
-63 -9 -80 -12 -66 -9 -278 -47 -420 -74 -144 -28 -177 -31 -190 -18 -4 3 -20
4 -36 1 -22 -3 -29 -1 -27 9 4 18 -36 68 -55 68 -20 0 -40 -27 -34 -44 3 -8
-1 -20 -10 -28 -14 -11 -17 -11 -21 1 -3 8 -7 9 -11 3 -3 -5 -17 -12 -31 -16
-19 -6 -21 -5 -10 3 10 7 11 11 3 11 -7 0 -22 -8 -32 -17 -23 -19 -66 -26 -52
-9 6 7 1 21 -14 38 -23 26 -24 27 -30 7 -7 -20 15 -63 41 -84 10 -8 9 -15 -6
-33 -11 -13 -28 -25 -37 -27 -10 -1 -17 -8 -15 -14 1 -6 -2 -11 -7 -11 -5 0
-17 -3 -27 -7 -11 -4 -15 -3 -11 4 4 6 0 14 -8 17 -9 3 -18 -1 -22 -9 -3 -10
-12 -13 -23 -10 -11 3 -20 0 -24 -10 -10 -27 -33 -17 -32 14 1 16 3 29 6 28 3
-1 21 7 40 17 37 20 51 36 62 74 6 20 4 22 -10 17 -36 -15 -47 -11 -47 20 -1
19 -6 31 -17 33 -8 2 -19 12 -24 22 -7 14 -13 17 -24 10 -13 -8 -13 -11 3 -22
12 -9 20 -35 25 -80 l8 -68 -30 0 c-17 0 -42 -3 -55 -7 -19 -5 -22 -3 -16 8 7
12 6 12 -7 1 -24 -19 -29 -50 -10 -65 22 -16 27 -38 7 -31 -9 4 -22 1 -30 -6
-12 -10 -18 -10 -30 0 -12 10 -18 10 -30 0 -12 -10 -16 -9 -21 5 -5 13 -9 14
-15 4 -4 -7 -3 -19 3 -26 8 -10 7 -12 -6 -7 -11 4 -15 2 -13 -7 2 -8 2 -11 0
-6 -8 13 -33 8 -39 -8 -4 -8 -14 -15 -23 -15 -9 0 -22 -5 -28 -11 -19 -19 -31
-1 -32 44 -1 23 -2 51 -3 61 -2 13 5 21 20 25 28 7 30 24 5 31 -20 5 -31 64
-14 74 6 4 6 17 0 34 -5 15 -11 49 -15 75 -3 29 -14 57 -26 69 -17 17 -18 22
-7 30 11 8 10 9 -3 5 -20 -7 -45 18 -28 28 6 4 22 -3 35 -15 25 -24 52 -21 81
8 10 9 27 17 39 17 12 1 36 11 53 24 29 20 65 32 100 34 6 0 12 5 12 11 0 7 3
7 8 -1 5 -8 22 -6 62 8 30 11 66 22 79 25 13 3 33 10 43 15 11 6 31 8 44 5 14
-4 34 0 47 8 12 8 41 17 65 21 23 4 42 10 42 14 0 8 19 12 63 12 15 0 27 4 27
9 0 6 13 10 28 10 15 0 32 4 38 9 21 21 90 24 118 6z m2291 -115 l0 -45 -70
-24 c-38 -12 -124 -39 -190 -57 -66 -19 -151 -44 -190 -55 -38 -11 -89 -25
-112 -31 -29 -8 -43 -17 -43 -28 0 -26 -12 -32 -30 -15 -16 14 -38 9 -241 -50
-123 -36 -264 -79 -314 -95 -157 -51 -493 -153 -630 -190 -38 -10 -117 -33
-175 -50 -206 -62 -236 -69 -277 -70 -23 0 -48 -7 -57 -15 -15 -15 -110 -47
-173 -59 -62 -11 -33 14 80 67 110 53 187 80 317 113 36 9 85 25 110 36 41 18
111 40 255 83 111 32 186 58 191 66 3 5 15 9 27 9 55 0 284 63 347 95 25 13
59 26 75 29 142 24 263 60 350 104 22 11 85 32 140 47 164 44 265 76 361 117
50 21 100 38 111 38 10 0 28 7 39 15 11 9 35 14 59 12 l40 -2 0 -45z m-9227
-106 c13 -2 20 -9 17 -14 -3 -5 -1 -11 5 -15 16 -10 11 -43 -8 -54 -26 -14
-166 -8 -185 8 -11 9 -15 24 -12 45 2 17 4 31 4 31 15 3 163 3 179 -1z m9227
-40 c0 -15 -25 -42 -80 -86 -108 -87 -191 -149 -229 -171 -17 -11 -53 -36 -81
-56 -60 -46 -64 -47 -189 -72 -55 -11 -120 -26 -145 -34 -77 -25 -204 -62
-251 -73 -80 -20 -164 -41 -220 -57 -30 -9 -136 -34 -234 -56 -98 -23 -211
-51 -250 -63 -123 -39 -384 -108 -585 -156 -51 -12 -121 -30 -155 -41 -85 -27
-347 -96 -491 -130 -66 -15 -136 -32 -155 -37 -19 -6 -73 -20 -120 -31 -47
-12 -98 -25 -115 -30 -16 -5 -82 -21 -145 -36 -63 -14 -188 -47 -278 -72 -89
-25 -169 -43 -177 -39 -21 8 -19 69 3 88 23 20 63 34 157 57 44 10 96 28 116
40 20 12 41 21 45 20 25 -6 217 44 248 65 12 7 42 16 66 20 41 6 92 19 130 33
8 3 23 8 32 9 10 2 35 13 55 24 21 11 52 20 70 20 18 0 52 6 75 14 24 8 61 16
82 20 22 3 62 17 90 30 31 15 98 33 170 45 74 13 138 30 170 46 28 14 74 29
101 34 49 9 128 34 270 84 39 14 108 35 155 47 97 25 218 60 305 88 33 11 96
29 140 40 140 37 230 64 235 73 3 5 78 27 165 49 88 22 164 45 169 50 6 6 22
10 36 10 15 0 49 11 76 25 27 15 78 32 114 39 114 24 391 118 431 147 15 10
38 19 51 19 12 0 43 7 68 15 57 18 75 15 75 -11z m-549 -489 c5 -13 9 -13 23
-3 14 11 -40 -50 -101 -114 -13 -14 -79 -84 -148 -158 -69 -73 -132 -139 -140
-147 -8 -7 -30 -27 -48 -44 -31 -28 -39 -30 -95 -28 -34 2 -67 7 -74 11 -7 6
-17 1 -27 -14 -9 -12 -16 -19 -16 -14 0 5 -10 2 -22 -6 -32 -20 -95 -35 -393
-94 -11 -2 -42 -8 -70 -14 -27 -6 -63 -12 -80 -15 -16 -2 -77 -11 -135 -20
-58 -9 -116 -14 -129 -12 -14 3 -32 1 -40 -3 -41 -22 -274 -70 -506 -105 -143
-22 -264 -44 -295 -55 -14 -5 -41 -11 -60 -14 -19 -3 -69 -13 -110 -21 -41 -8
-127 -24 -190 -34 -63 -11 -151 -29 -194 -40 -125 -33 -117 -38 -113 84 2 58
8 109 13 114 5 4 60 20 123 35 63 15 154 41 203 57 50 16 98 29 108 29 10 0
20 5 22 10 3 10 191 49 263 55 30 3 169 36 235 57 19 6 44 12 55 14 11 2 52
12 90 24 84 26 76 24 150 39 33 7 82 19 109 27 26 8 59 14 73 14 13 0 34 6 46
14 12 8 40 17 62 20 127 21 309 72 325 91 6 7 34 16 63 20 29 4 70 11 92 17
22 5 48 12 59 14 10 2 42 10 70 18 28 8 69 17 91 22 22 4 45 9 50 11 6 1 37 9
70 17 33 7 89 21 125 31 36 9 74 19 85 21 11 2 43 10 70 19 28 8 62 15 76 15
15 0 38 9 52 20 14 11 34 20 44 20 11 0 28 7 39 15 26 20 93 20 100 0z m-2072
-160 c-2 -14 -201 -94 -309 -125 -16 -5 -55 -16 -85 -25 -30 -9 -98 -27 -150
-40 -52 -13 -129 -36 -170 -50 -41 -14 -111 -35 -155 -46 -44 -11 -109 -29
-143 -41 -42 -13 -67 -17 -74 -10 -12 12 45 35 158 62 49 11 121 36 159 55 89
43 146 62 215 71 30 4 60 10 65 14 16 12 157 63 195 71 69 14 240 66 249 74 9
9 46 1 45 -10z m-1369 -580 l0 -39 -85 -23 c-47 -13 -137 -37 -200 -54 -63
-18 -144 -38 -180 -45 -36 -7 -122 -28 -190 -48 -69 -19 -159 -42 -200 -51
-41 -9 -104 -25 -140 -35 -100 -29 -211 -58 -251 -64 -21 -4 -41 -12 -46 -19
-12 -16 -15 -65 -4 -71 7 -5 83 12 157 35 17 5 46 9 65 9 19 0 54 10 79 21 25
12 61 25 80 30 19 4 62 15 95 23 33 9 74 18 91 20 33 4 134 32 169 47 11 4 40
11 65 14 25 4 70 15 100 25 200 63 364 104 386 96 16 -6 19 -42 5 -51 -5 -3
-13 -31 -17 -63 -8 -71 -17 -82 -63 -82 -20 0 -41 -4 -46 -9 -6 -5 -55 -16
-110 -25 -55 -10 -125 -23 -155 -31 -30 -7 -116 -23 -190 -35 -74 -12 -169
-30 -210 -40 -70 -17 -133 -28 -205 -35 -16 -2 -30 -4 -30 -5 0 -1 -28 -4 -62
-5 -53 -3 -63 -1 -68 15 -3 10 -12 21 -20 23 -18 8 -28 -22 -13 -40 18 -23 -9
-34 -64 -27 -34 4 -53 1 -72 -11 -24 -16 -26 -16 -26 -1 0 22 -23 20 -45 -4
-10 -11 -25 -20 -34 -20 -9 0 -28 -14 -43 -32 -21 -27 -29 -31 -39 -20 -16 15
-44 16 -67 1 -27 -17 -71 7 -95 51 -10 19 -27 44 -36 56 -14 18 -18 45 -19
131 0 59 2 141 6 182 6 61 10 75 25 77 35 5 47 24 45 76 -1 59 16 84 31 45 10
-26 13 -27 89 -27 47 0 85 -5 95 -12 15 -11 17 -40 19 -223 2 -120 7 -210 12
-210 12 0 42 77 51 128 6 39 26 48 65 27 13 -7 21 -7 25 0 4 6 31 29 61 51 36
26 54 46 52 57 -4 18 -44 24 -65 9 -16 -12 -25 9 -18 42 6 27 3 31 -31 47 -36
17 -37 17 -53 -3 -9 -11 -21 -29 -27 -39 -6 -10 -15 -14 -22 -10 -16 10 -16
113 0 123 14 8 98 11 93 3 -5 -9 28 -45 63 -69 18 -12 30 -26 27 -31 -3 -5 2
-16 12 -25 15 -16 17 -16 26 2 32 57 59 45 45 -20 -15 -73 -15 -72 20 -75 18
-2 44 3 56 12 13 8 59 22 102 31 43 9 92 25 109 35 16 10 62 24 100 31 39 7
86 20 105 29 37 18 92 31 151 35 20 1 49 12 65 24 16 12 79 35 139 52 61 16
133 36 160 44 28 7 61 13 75 12 22 -2 25 -7 25 -42z m-4296 -4 c14 -4 27 -14
29 -23 4 -22 -39 -27 -196 -20 -139 5 -160 13 -131 48 11 14 31 15 142 9 71
-4 141 -11 156 -14z m2509 -157 c3 -141 2 -151 -18 -169 -19 -17 -21 -17 -40
0 -19 17 -20 17 -30 -9 -5 -15 -7 -39 -4 -54 4 -19 3 -23 -4 -13 -7 10 -11 10
-17 1 -4 -6 -2 -17 4 -23 20 -20 11 -30 -24 -24 -19 3 -37 1 -40 -4 -13 -20
-27 -7 -51 45 -24 52 -24 56 -9 92 15 36 15 40 -4 65 -16 22 -19 37 -14 81 5
52 4 55 -18 61 l-24 6 23 23 23 23 19 -25 c11 -14 23 -36 26 -50 10 -43 13
-50 22 -50 5 0 8 27 6 60 -1 33 1 62 5 65 4 2 15 -14 25 -36 18 -40 42 -44 32
-5 -3 11 -3 37 0 58 l6 36 52 -2 51 -1 3 -151z m2216 39 c6 -82 4 -100 -9
-109 -18 -13 -114 -28 -123 -19 -9 9 -2 189 8 199 8 8 65 22 101 25 13 1 17
-16 23 -96z m2133 84 c6 -4 14 -19 18 -34 3 -16 18 -41 33 -56 l27 -28 -33
-25 c-18 -14 -30 -29 -27 -34 3 -4 -2 -13 -10 -20 -8 -7 -15 -18 -15 -25 0
-19 -22 -24 -37 -9 -18 18 -16 23 7 19 26 -5 35 12 13 23 -17 9 -32 8 -73 -3
-8 -2 -19 -4 -23 -4 -5 -1 -1 -8 8 -18 16 -15 16 -17 0 -26 -15 -8 -15 -10 0
-27 20 -22 10 -30 -43 -32 -29 -1 -39 -5 -35 -15 3 -7 0 -13 -6 -13 -6 0 -11
5 -11 11 0 8 -13 10 -37 6 -23 -4 -32 -3 -24 2 15 9 7 51 -10 51 -6 0 -7 5 -4
10 3 6 1 25 -6 43 -11 31 -9 38 15 73 14 21 50 63 78 92 l53 54 65 -4 c36 -2
71 -7 77 -11z m-2311 -38 c10 -17 5 -172 -6 -183 -5 -5 -36 -13 -67 -17 -32
-5 -67 -10 -78 -11 -19 -3 -20 3 -20 81 0 77 2 85 24 100 21 14 93 36 128 40
6 0 15 -4 19 -10z m1646 -43 c-2 -22 -15 -57 -29 -79 -22 -35 -28 -39 -59 -35
-19 2 -34 0 -34 -4 0 -5 -15 -6 -34 -4 -42 5 -68 -19 -70 -64 -1 -16 -3 -30
-4 -30 -2 0 -17 14 -33 31 -16 17 -33 28 -39 24 -5 -3 -10 -4 -10 -1 0 2 -3
11 -6 19 -3 10 3 17 20 21 17 4 23 11 19 21 -8 22 87 114 134 131 21 7 63 13
93 11 l55 -2 -3 -39z m343 7 c-3 -16 -13 -32 -21 -36 -9 -5 -13 -16 -9 -28 8
-24 -11 -49 -36 -49 -11 0 -19 -5 -19 -11 0 -5 4 -8 8 -5 10 6 9 -29 -2 -62
-5 -15 -13 -21 -22 -18 -9 3 -12 1 -9 -4 3 -6 -1 -13 -9 -16 -10 -4 -16 -18
-16 -40 0 -34 -28 -61 -46 -46 -5 4 0 -3 10 -15 20 -24 22 -22 -28 -37 -15 -5
-24 11 -32 51 -3 16 0 21 10 17 8 -3 23 7 36 25 12 17 25 29 29 27 4 -3 7 6 7
20 0 13 -4 24 -9 24 -4 0 -5 6 -1 13 5 8 2 8 -9 -2 -15 -11 -17 -11 -17 2 0
18 26 41 38 33 6 -3 16 2 23 11 12 15 12 16 -3 10 -35 -13 -40 18 -14 77 27
60 61 85 120 86 26 0 28 -2 21 -27z m-1609 -195 c4 -7 3 -8 -4 -4 -7 4 -12 2
-12 -3 0 -17 27 -13 34 4 3 8 14 15 25 15 11 0 23 4 26 10 3 5 45 8 94 7 78
-2 87 -4 83 -19 -2 -10 -9 -18 -14 -18 -6 0 -4 -8 3 -17 10 -11 10 -14 2 -9
-8 4 -13 1 -13 -9 0 -9 -7 -23 -15 -31 -8 -9 -15 -13 -15 -9 0 3 -26 -16 -58
-43 -32 -26 -76 -59 -98 -72 -21 -13 -50 -33 -64 -46 -38 -35 -122 -76 -132
-66 -13 13 -17 118 -8 208 8 83 27 114 69 114 14 0 33 4 40 9 16 10 45 -1 57
-21z m-4574 -5 c21 -18 24 -72 6 -78 -7 -2 -73 -6 -146 -8 -101 -3 -136 -7
-142 -18 -7 -11 -12 -11 -22 -1 -6 6 -29 12 -50 12 -25 0 -41 5 -44 15 -5 12
-29 15 -125 15 -100 0 -121 3 -126 16 -3 9 3 24 14 35 18 18 37 20 207 24 104
2 189 5 191 7 2 2 52 2 112 0 81 -3 112 -7 125 -19z m5268 -22 c0 -9 6 -23 13
-30 8 -9 8 -12 0 -7 -13 7 -28 -28 -19 -43 10 -15 41 -5 38 13 -2 9 2 16 8 16
5 0 10 12 10 28 l0 27 20 -30 c26 -39 25 -49 -8 -98 -16 -23 -32 -54 -36 -69
-4 -20 -18 -33 -52 -47 -25 -11 -43 -24 -40 -29 3 -5 0 -9 -7 -10 -7 -1 -47
-7 -89 -15 -69 -12 -93 -10 -116 9 -2 1 1 19 8 38 6 20 10 41 8 48 -5 15 -58
-42 -58 -62 0 -15 -66 -50 -94 -50 -8 0 -17 -4 -20 -9 -3 -4 -34 -8 -68 -7
-56 1 -63 3 -66 22 -2 13 8 32 26 49 21 19 28 34 24 51 -3 17 1 26 14 31 11 3
26 15 35 25 9 10 26 18 38 18 11 0 21 5 21 10 0 6 9 10 19 10 22 0 85 33 118
63 15 14 30 18 47 13 29 -7 35 -25 9 -22 -10 0 -17 -5 -15 -11 1 -7 -3 -13 -8
-13 -7 0 -6 -8 2 -22 6 -13 11 -34 9 -47 -4 -33 16 -18 24 18 4 21 13 30 34
34 17 4 31 14 34 26 3 14 1 18 -9 14 -10 -4 -12 0 -8 11 6 15 15 19 32 14 4
-2 6 -6 5 -10 -6 -18 17 -6 27 13 7 12 17 18 27 15 24 -9 34 3 22 26 -8 15 -8
19 0 14 6 -4 11 -2 11 5 0 8 4 8 15 -1 8 -7 15 -20 15 -29z m-892 -147 c4
-205 2 -208 -123 -216 l-40 -3 0 75 c1 41 3 117 6 169 7 109 18 125 79 115 24
-4 40 -2 45 5 4 7 12 10 18 8 8 -2 13 -51 15 -153z m-192 114 c11 -17 5 -199
-7 -275 l-11 -61 -71 1 -72 2 -3 83 c-2 46 2 106 8 134 7 35 7 55 0 62 -14 14
-13 23 4 29 10 4 12 0 8 -16 -4 -17 2 -13 32 16 28 28 45 37 71 37 18 0 37 -5
41 -12z m-257 -47 c12 -7 13 -33 8 -138 -6 -131 -12 -167 -27 -158 -5 3 -43
-2 -85 -10 -42 -9 -100 -16 -128 -17 -151 -1 -270 -7 -336 -17 -49 -8 -77 -8
-81 -2 -3 7 -26 5 -61 -4 -31 -8 -76 -13 -99 -11 -24 3 -68 0 -97 -4 -83 -14
-243 -14 -256 -1 -8 8 -2 23 21 56 18 25 32 49 32 54 0 4 10 16 22 27 12 10
18 14 15 7 -5 -7 0 -9 13 -6 15 4 17 9 10 23 -6 10 -10 21 -10 24 0 2 46 4
102 3 74 -1 103 2 106 11 3 10 7 10 19 0 12 -10 17 -9 24 5 7 12 17 15 34 11
18 -4 33 1 55 19 23 20 45 27 97 31 38 3 95 12 128 18 33 7 86 13 118 14 35 1
65 8 75 17 25 21 172 31 172 12 0 -23 14 -18 38 15 23 31 61 40 91 21z m10026
-212 c44 -6 89 -11 100 -12 22 -3 94 -26 110 -36 6 -3 18 -7 28 -8 22 -4 115
-52 123 -64 3 -5 -5 -9 -18 -9 -13 0 -29 -9 -36 -20 -7 -11 -21 -20 -31 -20
-23 0 -36 16 -21 25 5 3 10 2 10 -4 0 -10 25 -9 36 2 4 4 -1 7 -12 7 -10 0
-28 7 -38 15 -14 11 -23 12 -33 4 -10 -9 -17 -8 -28 1 -24 20 -41 -3 -19 -25
17 -17 17 -17 -3 -11 -12 4 -31 1 -41 -5 -17 -11 -25 -8 -53 16 -19 15 -34 33
-34 39 0 6 -9 11 -20 12 -25 1 -67 18 -101 41 -30 19 -34 20 -116 29 -49 6
-59 4 -64 -10 -4 -11 2 -29 15 -47 12 -17 21 -35 19 -41 -2 -6 -14 4 -25 23
-12 19 -33 45 -47 58 -43 41 -21 51 108 50 61 0 147 -5 191 -10z m-14946 -143
c33 -32 58 -34 57 -5 -2 36 22 33 61 -6 26 -26 33 -39 25 -47 -7 -7 -19 -4
-41 11 -17 12 -36 19 -42 15 -10 -6 -428 -26 -594 -28 -65 -1 -70 1 -67 19 6
34 24 43 103 52 73 9 78 8 105 -15 25 -22 33 -24 88 -17 34 4 67 8 74 8 8 0
21 11 30 25 15 24 19 24 95 19 67 -4 83 -9 106 -31z m6996 -62 c126 -19 165
-31 159 -48 -4 -10 -67 -13 -297 -12 -226 1 -320 -3 -417 -16 -152 -21 -231
-37 -246 -49 -10 -8 -27 -120 -29 -183 -1 -28 -21 -31 -30 -4 -15 47 -15 60 0
88 21 40 19 93 -4 114 -23 21 -131 39 -186 31 -37 -5 -39 -5 -21 9 10 8 39 18
65 21 25 4 61 11 79 15 21 6 42 5 57 -2 19 -9 31 -7 60 11 35 20 40 21 193 10
86 -6 191 -13 233 -14 42 -1 83 -6 90 -10 8 -5 11 -5 7 -1 -3 4 7 20 24 35 27
24 36 27 97 23 36 -1 111 -10 166 -18z m7798 -16 c12 -6 59 -11 107 -10 61 0
110 -6 172 -23 65 -17 102 -22 143 -18 74 8 89 -5 80 -66 -4 -25 -12 -52 -17
-59 -8 -9 -7 -25 1 -53 9 -31 10 -44 0 -55 -26 -32 -150 -4 -193 45 -19 21
-19 21 4 46 20 22 21 25 7 39 -9 9 -24 16 -35 16 -11 0 -30 8 -43 19 -25 19
-68 37 -81 33 -5 -1 -8 3 -8 8 0 6 -9 10 -19 10 -11 0 -32 6 -48 14 -15 8 -45
21 -65 30 -21 9 -38 20 -38 26 0 13 6 13 33 -2z m-14523 -137 c15 -28 13 -36
-15 -69 -24 -29 -24 -30 -10 -86 8 -31 15 -59 15 -61 0 -9 -30 -5 -48 6 -14 9
-29 5 -72 -17 -29 -16 -55 -33 -57 -39 -1 -5 7 -23 20 -38 l22 -28 53 17 c29
10 58 26 63 36 11 21 35 24 41 6 2 -7 2 -26 -1 -43 -5 -24 -17 -36 -58 -57
-29 -15 -70 -29 -90 -32 -21 -3 -63 -10 -93 -15 -30 -4 -58 -7 -62 -4 -5 2 -8
0 -8 -6 0 -6 -12 -6 -35 0 -19 6 -39 7 -44 4 -5 -3 -12 -1 -16 5 -3 5 -15 10
-26 10 -12 0 -19 5 -17 13 3 6 34 17 69 22 73 11 90 20 83 40 -3 7 4 18 16 25
11 6 18 16 14 22 -5 8 -46 9 -133 4 -69 -3 -174 -7 -234 -9 -111 -4 -147 -16
-108 -36 12 -7 21 -20 21 -31 0 -27 12 -31 85 -32 45 -1 66 -5 69 -15 3 -8 2
-12 -3 -9 -5 3 -20 -3 -34 -14 -16 -13 -28 -16 -32 -10 -3 5 -45 10 -93 11
-48 0 -102 5 -121 12 -38 13 -52 47 -20 47 11 0 22 8 25 18 3 9 10 25 16 36
14 27 -20 49 -91 60 -45 7 -59 19 -89 75 -16 31 -1 43 43 38 17 -3 102 1 190
9 88 7 225 15 305 18 226 9 343 18 368 27 17 7 22 16 22 43 0 25 7 39 22 50
29 21 35 20 48 -3z m-1166 -152 c34 -20 46 -42 28 -53 -16 -10 -138 -21 -230
-21 -87 0 -94 2 -111 24 -29 38 -6 52 85 56 42 2 79 6 82 9 14 15 113 5 146
-15z m6568 -96 c11 -23 23 -29 98 -43 47 -9 94 -21 105 -27 11 -6 47 -16 80
-23 61 -13 125 -44 125 -61 0 -17 -19 -9 -30 12 -9 16 -14 18 -25 9 -9 -7 -35
-9 -77 -5 -92 10 -237 33 -248 40 -6 4 -23 9 -38 11 -15 3 -31 9 -36 15 -6 5
-27 9 -49 9 -44 0 -77 15 -77 34 0 25 62 56 112 56 41 0 49 -3 60 -27z m1846
-38 c28 -13 69 -27 90 -30 93 -15 212 -79 252 -135 l22 -31 -22 -16 -23 -16
23 -19 c17 -14 24 -31 26 -61 1 -35 5 -43 23 -45 32 -5 37 -30 11 -58 -21 -22
-30 -24 -89 -21 -36 2 -85 0 -109 -5 -117 -21 -318 -26 -306 -6 3 4 -9 8 -25
8 -17 0 -31 -4 -31 -10 0 -5 -19 -9 -42 -8 -24 0 -63 -5 -88 -12 -25 -7 -115
-14 -200 -16 -85 -1 -183 -6 -217 -10 -40 -4 -86 -2 -125 6 -86 18 -97 24 -67
40 13 7 26 14 28 16 9 8 -43 64 -59 64 -13 0 -18 5 -13 15 3 9 8 13 11 10 8
-7 42 26 42 41 0 14 -16 20 -77 29 -24 3 -58 12 -77 20 -18 8 -36 11 -40 8 -3
-3 -15 2 -25 11 -11 10 -25 19 -33 20 -7 1 -33 8 -58 15 -25 7 -63 18 -85 24
-50 13 -65 24 -65 47 0 10 -6 20 -12 22 -7 3 -13 16 -13 30 -1 23 2 24 50 25
90 0 320 11 366 17 66 9 170 16 419 28 222 10 441 23 470 26 8 1 39 -9 68 -23z
m2712 -1736 c0 -16 -24 -21 -132 -25 -62 -2 -148 -8 -192 -14 -84 -10 -234
-22 -321 -25 -27 -1 -84 -5 -125 -9 -236 -21 -313 -27 -390 -30 -47 -2 -142
-7 -212 -11 -84 -5 -128 -4 -128 2 0 10 178 36 325 48 39 3 84 8 100 10 17 2
116 9 220 15 105 5 244 14 310 20 66 5 187 12 269 15 83 3 151 7 152 8 7 6
124 3 124 -4z m-1522 -107 c7 -1 11 -6 8 -11 -7 -10 -95 -19 -276 -26 -74 -4
-166 -10 -205 -14 -38 -5 -97 -9 -130 -10 -33 -1 -96 -6 -140 -11 -44 -5 -93
-9 -110 -8 -16 1 -73 -2 -125 -5 -52 -4 -160 -12 -240 -17 -80 -6 -172 -12
-205 -15 -351 -30 -553 -44 -875 -61 -36 -2 -83 -5 -105 -7 -107 -10 -220 -18
-315 -22 -58 -2 -150 -7 -205 -10 -55 -3 -139 -7 -186 -9 -48 -2 -91 -6 -97
-10 -6 -3 -77 -9 -159 -12 -173 -7 -209 -9 -323 -17 -47 -4 -172 -11 -278 -17
-106 -5 -197 -12 -202 -15 -6 -4 -10 1 -10 9 0 16 63 38 96 34 11 -2 64 1 119
5 55 4 152 9 215 12 63 3 142 10 175 15 58 9 319 24 378 22 16 -1 61 5 100 12
40 7 99 12 132 10 33 -2 75 1 94 6 21 6 39 6 46 0 6 -5 27 -5 50 0 35 7 97 12
345 26 97 5 199 14 290 24 114 13 179 17 370 25 80 3 156 8 170 10 14 3 106 7
205 10 99 3 227 8 285 12 58 3 121 7 140 8 20 0 41 5 48 9 7 4 16 5 21 2 5 -4
42 -1 83 5 40 6 91 10 113 10 22 0 117 4 210 10 250 15 287 18 291 22 3 3 175
2 202 -1z m3342 -201 c0 -12 -57 -34 -73 -28 -8 3 -49 1 -93 -4 -43 -5 -119
-11 -169 -14 -49 -3 -130 -9 -180 -15 -49 -5 -146 -14 -215 -20 -69 -6 -141
-12 -160 -15 -19 -2 -77 -6 -127 -9 -51 -4 -119 -8 -150 -11 -32 -3 -119 -9
-193 -15 -74 -6 -155 -14 -180 -17 -25 -4 -58 -7 -75 -8 -43 -3 -172 -13 -384
-30 -101 -9 -249 -20 -330 -25 -179 -12 -389 -28 -456 -35 -170 -18 -257 -25
-390 -35 -83 -6 -160 -12 -172 -14 -12 -3 -86 -7 -165 -11 -78 -4 -159 -9
-178 -11 -19 -3 -60 -7 -90 -9 -184 -14 -252 -19 -305 -20 -33 -1 -103 -6
-155 -10 -52 -5 -107 -9 -122 -8 -16 0 -28 -3 -28 -6 0 -4 -26 -7 -57 -7 -56
0 -338 -21 -398 -29 -16 -3 -75 -7 -130 -10 -55 -3 -118 -8 -140 -11 -69 -8
-117 -12 -229 -19 -60 -3 -113 -8 -116 -10 -4 -2 -88 -9 -186 -15 -300 -17
-368 -21 -414 -26 -107 -10 -210 -17 -277 -18 -39 -1 -70 -3 -68 -6 2 -3 -24
-6 -58 -8 -123 -5 -198 -12 -208 -18 -18 -11 -331 -14 -352 -3 -13 7 -17 8
-13 1 10 -17 -3 -20 -103 -26 -124 -7 -194 -17 -208 -28 -7 -5 -14 -5 -17 1
-4 6 -19 8 -34 6 -15 -3 -70 -7 -124 -9 -53 -2 -100 -6 -105 -8 -7 -4 -50 -4
-75 1 -5 0 -8 8 -8 16 0 11 12 15 48 16 26 0 56 2 67 4 11 3 63 7 115 11 52 3
113 8 135 10 22 2 105 8 185 13 80 5 174 14 210 20 36 5 110 13 165 16 55 4
116 8 135 11 19 2 78 6 130 9 52 2 133 9 180 15 119 14 220 22 255 21 17 0
100 7 185 15 85 9 209 17 275 19 175 6 322 17 410 30 17 2 69 5 117 6 49 0 90
5 93 9 3 5 47 9 98 9 102 0 219 8 257 17 14 3 57 7 95 8 39 2 113 6 165 10
103 7 259 16 355 21 77 4 189 14 240 21 22 3 74 6 115 8 41 2 82 6 90 9 17 6
156 17 265 21 39 1 109 8 157 14 48 7 136 14 197 16 60 2 114 7 120 10 9 6 49
9 266 21 142 8 244 15 285 20 19 3 62 7 95 10 33 3 107 9 165 14 58 6 141 13
185 16 44 4 98 8 120 10 22 2 130 11 240 20 110 8 218 17 240 20 22 2 90 7
150 10 171 8 247 14 425 35 235 28 680 48 680 31z m-11534 -652 c4 -6 20 -8
40 -4 27 5 36 2 41 -11 11 -29 -31 -50 -103 -52 -63 -2 -102 -14 -116 -36 -5
-8 -11 -7 -19 1 -8 8 -17 9 -24 3 -16 -13 -147 -17 -151 -5 -2 6 15 20 38 32
32 17 62 23 121 24 42 1 77 6 77 10 0 5 7 9 15 9 8 0 24 9 35 20 22 22 36 25
46 9z"/>
<path d="M13961 11694 c-29 -15 -55 -34 -58 -43 -3 -9 -12 -23 -18 -31 -16
-19 -35 -112 -34 -165 2 -117 24 -206 73 -292 47 -83 160 -137 281 -133 88 2
109 33 98 143 l-6 56 -76 -6 c-88 -6 -115 3 -170 60 -32 34 -33 37 -35 127 -1
81 1 93 19 107 29 22 111 12 173 -20 85 -45 91 -40 83 67 -6 64 -9 71 -41 97
-38 31 -131 59 -195 59 -24 0 -63 -11 -94 -26z"/>
<path d="M14339 11614 c-15 -18 -15 -30 -8 -367 5 -178 8 -221 21 -233 18 -18
86 -29 123 -20 l27 7 -5 259 c-3 143 -2 260 3 260 11 0 21 -30 14 -41 -3 -5 0
-25 6 -43 10 -32 22 -40 82 -59 19 -7 25 -58 33 -277 4 -116 8 -147 21 -157
19 -14 109 -27 124 -18 6 4 10 73 10 190 0 101 2 190 5 198 4 10 16 12 43 8
l37 -7 1 -79 c4 -235 63 -352 203 -405 87 -32 174 -26 208 16 26 33 58 95 55
107 -1 4 2 7 7 7 10 0 21 -24 21 -44 0 -33 75 -137 119 -165 53 -34 153 -56
181 -41 10 6 30 10 45 10 35 0 70 42 91 107 13 43 16 77 11 180 -7 165 -25
218 -100 289 -46 43 -64 53 -117 64 -50 11 -73 11 -109 2 -58 -15 -116 -76
-135 -141 -14 -50 -22 -53 -86 -39 -163 38 -173 35 -168 -51 l3 -56 45 -16
c60 -22 63 -53 7 -57 -35 -3 -43 1 -77 38 -29 31 -42 57 -50 97 -13 63 -5 132
19 150 23 18 94 6 160 -26 39 -19 56 -22 59 -13 2 6 7 10 10 8 12 -7 1 138
-11 153 -17 20 -109 60 -157 67 -55 9 -121 -12 -169 -52 -21 -19 -42 -34 -45
-34 -3 0 -6 19 -6 43 0 24 -6 50 -12 59 -11 13 -117 43 -283 78 -48 11 -51 10
-73 -17 -19 -23 -24 -26 -32 -13 -5 8 -8 20 -5 27 6 17 -22 36 -74 50 -59 16
-56 16 -72 -3z m1268 -456 c46 -28 63 -71 63 -161 0 -60 -4 -77 -19 -91 -37
-33 -98 -1 -142 74 -14 24 -20 126 -9 160 14 43 57 50 107 18z"/>
<path d="M14974 8688 c2 -24 4 -76 4 -115 l2 -73 34 0 c46 0 66 9 60 25 -3 8
-12 11 -19 9 -10 -4 -12 1 -8 15 3 12 9 21 14 21 14 0 10 17 -8 35 -9 10 -18
36 -19 61 -3 54 -9 64 -39 64 -22 0 -24 -4 -21 -42z"/>
<path d="M10461 3250 c-150 -12 -218 -26 -263 -56 -42 -27 -44 -31 -23 -58 23
-30 18 -44 -20 -68 -19 -13 -35 -26 -35 -30 0 -5 31 -8 69 -8 40 0 73 -5 77
-11 6 -11 88 -9 394 7 162 8 201 13 216 25 8 6 14 8 14 5 0 -4 6 -1 13 6 10 9
11 19 3 40 -13 35 2 81 29 86 26 5 46 22 40 33 -3 4 -16 4 -28 0 -15 -6 -33
-3 -59 10 -45 23 -254 32 -427 19z"/>
</g>
</svg>
