<?xml version="1.0" encoding="UTF-8" standalone="no"?>
<!DOCTYPE svg PUBLIC "-//W3C//DTD SVG 1.1//EN" "http://www.w3.org/Graphics/SVG/1.1/DTD/svg11.dtd">
<svg version="1.1" xmlns="http://www.w3.org/2000/svg" xmlns:xlink="http://www.w3.org/1999/xlink" preserveAspectRatio="xMidYMid meet" viewBox="0 0 300 249" width="300" height="249"><defs><path d="M131.5 54.84C128.86 54.84 107.74 54.78 105.1 54.77C102.53 54.77 100.45 52.85 100.46 50.48C100.46 48.12 102.55 46.21 105.13 46.22C107.77 46.23 128.88 46.29 131.52 46.29C134.09 46.3 136.17 48.22 136.17 50.58C136.16 52.94 134.07 54.85 131.5 54.84Z" id="c5c19RDzjY"></path><path d="M94.96 23.83C103.31 23.8 111.22 28.02 116.11 35.1C117.43 37.02 117.01 39.69 115.18 41.07C113.34 42.45 110.78 42.01 109.46 40.1C106.11 35.25 100.7 32.36 94.99 32.38C85.2 32.42 77.27 40.76 77.3 50.97C77.33 61.19 85.32 69.47 95.11 69.44C100.83 69.42 106.22 66.5 109.53 61.63C110.84 59.7 113.4 59.25 115.24 60.61C117.09 61.98 117.52 64.65 116.21 66.58C111.37 73.7 103.49 77.96 95.14 77.99C80.83 78.04 69.16 65.93 69.11 51C69.06 36.07 80.66 23.88 94.96 23.83Z" id="d29hbxUSxv"></path><path d="M146.41 23.33C154.77 23.3 162.67 27.52 167.56 34.6C168.88 36.52 168.47 39.19 166.63 40.57C164.79 41.95 162.24 41.52 160.91 39.6C157.57 34.75 152.16 31.86 146.44 31.88C136.65 31.92 128.72 40.26 128.75 50.47C128.79 60.69 136.78 68.98 146.56 68.94C152.28 68.92 157.67 66 160.98 61.13C162.29 59.2 164.85 58.75 166.69 60.12C168.54 61.48 168.97 64.15 167.66 66.08C162.82 73.2 154.94 77.46 146.59 77.49C132.29 77.54 120.61 65.44 120.56 50.5C120.51 35.57 132.11 23.38 146.41 23.33Z" id="aQDVFlwuZ"></path><path d="M183.23 54.23C180.59 54.22 159.47 54.16 156.83 54.15C154.26 54.15 152.18 52.23 152.19 49.87C152.19 47.5 154.28 45.6 156.86 45.6C159.5 45.61 180.61 45.67 183.25 45.67C185.82 45.68 187.9 47.6 187.9 49.96C187.89 52.32 185.8 54.23 183.23 54.23Z" id="a1nnIEWQLW"></path></defs><g><g><g><use xlink:href="#c5c19RDzjY" opacity="1" fill="#EE343C" fill-opacity="1"></use><g><use xlink:href="#c5c19RDzjY" opacity="1" fill-opacity="0" stroke="#EE343C" stroke-width="1" stroke-opacity="0"></use></g></g><g><use xlink:href="#d29hbxUSxv" opacity="1" fill="#EE343C" fill-opacity="1"></use><g><use xlink:href="#d29hbxUSxv" opacity="1" fill-opacity="0" stroke="#000000" stroke-width="1" stroke-opacity="0"></use></g></g><g><use xlink:href="#aQDVFlwuZ" opacity="1" fill="#EE343C" fill-opacity="1"></use><g><use xlink:href="#aQDVFlwuZ" opacity="1" fill-opacity="0" stroke="#000000" stroke-width="1" stroke-opacity="0"></use></g></g><g><use xlink:href="#a1nnIEWQLW" opacity="1" fill="#EE343C" fill-opacity="1"></use><g><use xlink:href="#a1nnIEWQLW" opacity="1" fill-opacity="0" stroke="#ffffff00" stroke-width="1" stroke-opacity="0"></use></g></g></g></g></svg>