<?xml version="1.0" encoding="UTF-8" standalone="no"?>
<!DOCTYPE svg PUBLIC "-//W3C//DTD SVG 1.1//EN" "http://www.w3.org/Graphics/SVG/1.1/DTD/svg11.dtd">
<svg version="1.1" xmlns="http://www.w3.org/2000/svg" xmlns:xlink="http://www.w3.org/1999/xlink" preserveAspectRatio="xMidYMid meet" viewBox="0 0 300 249" width="800" height="664"><defs><path d="M68.28 61.28C87.61 61.21 105.9 71.14 117.21 87.83C120.27 92.35 119.3 98.64 115.06 101.9C110.81 105.15 104.89 104.12 101.83 99.61C94.09 88.18 81.57 81.38 68.35 81.43C45.7 81.51 27.35 101.16 27.43 125.23C27.5 149.3 45.98 168.82 68.63 168.74C81.85 168.7 94.32 161.81 101.99 150.33C105.02 145.79 110.94 144.73 115.2 147.95C119.47 151.17 120.47 157.46 117.45 162C106.24 178.77 88.02 188.82 68.69 188.89C35.6 189.01 8.59 160.48 8.48 125.3C8.36 90.12 35.19 61.4 68.28 61.28Z" id="bKShDMYvp"></path><path d="M152.81 134.35C146.71 134.34 97.86 134.2 91.75 134.18C85.8 134.17 80.99 129.64 81 124.08C81.02 118.52 85.85 114.02 91.8 114.04C97.91 114.05 146.76 114.19 152.86 114.2C158.82 114.22 163.63 118.75 163.61 124.31C163.6 129.87 158.76 134.37 152.81 134.35Z" id="a50QiEnOEP"></path><path d="M192.04 101.01C192.07 105.63 192.34 142.61 192.37 147.23C192.4 151.73 188.13 155.41 182.82 155.46C177.51 155.5 173.18 151.88 173.15 147.38C173.11 142.76 172.85 105.79 172.82 101.16C172.78 96.66 177.06 92.97 182.37 92.93C187.68 92.89 192.01 96.51 192.04 101.01Z" id="a1edBn5YI"></path><path d="M187.32 60.11C206.65 60.04 224.93 69.97 236.24 86.66C239.3 91.18 238.34 97.47 234.09 100.72C229.85 103.97 223.92 102.95 220.87 98.43C213.12 87.01 200.61 80.21 187.38 80.26C164.74 80.34 146.39 99.99 146.46 124.06C146.54 148.13 165.02 167.65 187.67 167.57C200.89 167.52 213.36 160.64 221.03 149.16C224.06 144.62 229.97 143.55 234.24 146.78C238.51 150 239.51 156.28 236.48 160.82C225.28 177.6 207.06 187.65 187.73 187.72C154.64 187.84 127.63 159.31 127.51 124.12C127.4 88.94 154.23 60.22 187.32 60.11Z" id="chPxW863O"></path><path d="M272.49 132.9C266.38 132.88 217.54 132.74 211.43 132.73C205.48 132.71 200.67 128.19 200.68 122.62C200.69 117.06 205.53 112.56 211.48 112.58C217.59 112.59 266.44 112.73 272.54 112.75C278.49 112.76 283.31 117.29 283.29 122.85C283.28 128.42 278.44 132.91 272.49 132.9Z" id="aySByviSL"></path><path d="M73.28 101.62C73.31 106.25 73.58 143.22 73.61 147.84C73.64 152.34 69.37 156.03 64.06 156.07C58.75 156.11 54.42 152.49 54.39 147.99C54.36 143.37 54.09 106.4 54.06 101.78C54.03 97.27 58.3 93.59 63.61 93.54C68.92 93.5 73.25 97.12 73.28 101.62Z" id="b3VQi8Yv76"></path></defs><g><g><g><use xlink:href="#bKShDMYvp" opacity="1" fill="#039cf9" fill-opacity="1"></use><g><use xlink:href="#bKShDMYvp" opacity="1" fill-opacity="0" stroke="#000000" stroke-width="1" stroke-opacity="0"></use></g></g><g><use xlink:href="#a50QiEnOEP" opacity="1" fill="#039cf9" fill-opacity="1"></use><g><use xlink:href="#a50QiEnOEP" opacity="1" fill-opacity="0" stroke="#000000" stroke-width="1" stroke-opacity="0"></use></g></g><g><use xlink:href="#a1edBn5YI" opacity="1" fill="#039cf9" fill-opacity="1"></use><g><use xlink:href="#a1edBn5YI" opacity="1" fill-opacity="0" stroke="#000000" stroke-width="1" stroke-opacity="0"></use></g></g><g><use xlink:href="#chPxW863O" opacity="1" fill="#039cf9" fill-opacity="1"></use><g><use xlink:href="#chPxW863O" opacity="1" fill-opacity="0" stroke="#000000" stroke-width="1" stroke-opacity="0"></use></g></g><g><use xlink:href="#aySByviSL" opacity="1" fill="#039cf9" fill-opacity="1"></use><g><use xlink:href="#aySByviSL" opacity="1" fill-opacity="0" stroke="#000000" stroke-width="1" stroke-opacity="0"></use></g></g><g><use xlink:href="#b3VQi8Yv76" opacity="1" fill="#039cf9" fill-opacity="1"></use><g><use xlink:href="#b3VQi8Yv76" opacity="1" fill-opacity="0" stroke="#000000" stroke-width="1" stroke-opacity="0"></use></g></g></g></g></svg>