<?xml version="1.0" encoding="UTF-8" standalone="no"?>
<!DOCTYPE svg PUBLIC "-//W3C//DTD SVG 1.1//EN" "http://www.w3.org/Graphics/SVG/1.1/DTD/svg11.dtd">
<svg version="1.1" xmlns="http://www.w3.org/2000/svg" xmlns:xlink="http://www.w3.org/1999/xlink" preserveAspectRatio="xMidYMid meet" viewBox="0 0 300 249" width="300" height="249"><defs><path d="M141.72 142.43C141.52 123.11 151.32 104.75 167.94 93.33C172.43 90.24 178.73 91.16 182.01 95.38C185.3 99.61 184.31 105.54 179.82 108.62C168.44 116.45 161.73 129.01 161.87 142.23C162.11 164.87 181.88 183.09 205.95 182.85C230.02 182.61 249.42 163.99 249.18 141.35C249.04 128.13 242.07 115.7 230.54 108.11C225.98 105.12 224.87 99.21 228.07 94.92C231.26 90.63 237.54 89.58 242.1 92.58C258.95 103.67 269.13 121.82 269.33 141.15C269.67 174.24 241.33 201.44 206.15 201.8C170.97 202.15 142.07 175.52 141.72 142.43Z" id="iHVKWvDlk"></path><path d="M213.92 56.77C213.95 62.87 214.15 111.72 214.17 117.83C214.2 123.78 209.71 128.62 204.14 128.64C198.58 128.67 194.05 123.86 194.03 117.91C194 111.81 193.8 62.96 193.78 56.85C193.75 50.9 198.24 46.06 203.81 46.03C209.37 46.01 213.9 50.81 213.92 56.77Z" id="a3KA6hW9C4"></path></defs><g><g><g><use xlink:href="#iHVKWvDlk" opacity="1" fill="#039cf9" fill-opacity="1"></use><g><use xlink:href="#iHVKWvDlk" opacity="1" fill-opacity="0" stroke="#000000" stroke-width="1" stroke-opacity="0"></use></g></g><g><use xlink:href="#a3KA6hW9C4" opacity="1" fill="#039cf9" fill-opacity="1"></use><g><use xlink:href="#a3KA6hW9C4" opacity="1" fill-opacity="0" stroke="#000000" stroke-width="1" stroke-opacity="0"></use></g></g></g></g></svg>